<svg width="23" height="23" viewBox="0 0 23 23" fill="none" xmlns="http://www.w3.org/2000/svg">
<path d="M13.3138 3.2729L12.3386 2.3068C11.9256 1.89773 11.2579 1.89773 10.8494 2.3068L2.3097 10.7624C1.89677 11.1714 1.89677 11.8329 2.3097 12.2376L10.845 20.6932C11.2579 21.1023 11.9256 21.1023 12.3342 20.6932L13.3094 19.7271C13.7267 19.3137 13.7179 18.6391 13.2918 18.2344L8.00282 13.2429L21.9457 13.2429C22.53 13.2429 23 12.7773 23 12.1985L23 10.8059C23 10.2271 22.53 9.76145 21.9457 9.76145L8.00282 9.76145L13.2962 4.76558C13.7267 4.36086 13.7355 3.68633 13.3138 3.2729Z" fill="#216CDD"/>
</svg>
