<svg width="23" height="23" viewBox="0 0 23 23" fill="none" xmlns="http://www.w3.org/2000/svg">
<g clip-path="url(#clip0)">
<path d="M9.68623 19.7271L10.6614 20.6932C11.0744 21.1023 11.7421 21.1023 12.1506 20.6932L20.6903 12.2376C21.1032 11.8286 21.1032 11.1671 20.6903 10.7624L12.155 2.3068C11.7421 1.89773 11.0744 1.89773 10.6658 2.3068L9.69062 3.2729C9.2733 3.68632 9.28208 4.36086 9.70819 4.76557L14.9972 9.7571L1.05428 9.7571C0.470035 9.7571 9.62983e-07 10.2227 9.56081e-07 10.8015L9.39474e-07 12.1941C9.32572e-07 12.7729 0.470035 13.2385 1.05428 13.2385L14.9972 13.2385L9.7038 18.2344C9.2733 18.6391 9.26451 19.3137 9.68623 19.7271Z" fill="#216CDD"/>
</g>
<defs>
<clipPath id="clip0">
<rect width="23" height="23" fill="white" transform="matrix(1.19249e-08 -1 -1 -1.19249e-08 23 23)"/>
</clipPath>
</defs>
</svg>
