<svg width="63" height="63" viewBox="0 0 63 63" fill="none" xmlns="http://www.w3.org/2000/svg">
<g clip-path="url(#clip0)">
<path d="M1.8457 59.3086H3.69141V61.1543C3.69141 62.1738 4.51765 63 5.53711 63C6.55657 63 7.38281 62.1738 7.38281 61.1543V59.3086H9.22852C10.248 59.3086 11.0742 58.4824 11.0742 57.4629V50.0801C11.0742 47.6739 9.53133 45.6225 7.38281 44.8602V7.38281C7.38281 5.34725 9.03866 3.69141 11.0742 3.69141C13.1098 3.69141 14.7656 5.34725 14.7656 7.38281V22.2715C14.7656 26.3844 18.2249 29.6543 22.2715 29.6543H29.6543V33.3457H24.1172C23.0977 33.3457 22.2715 34.1719 22.2715 35.1914C22.2715 36.2109 23.0977 37.0371 24.1172 37.0371H25.9629V37.0857C25.9629 39.6067 24.3407 41.9076 22.0182 42.6819C17.7769 44.0955 14.7656 48.0609 14.7656 52.5732C14.7656 58.3247 19.5395 63 25.3155 63H37.685C43.0222 63 47.3908 59.0389 48.1229 54.0849C48.9193 49.4403 46.0118 44.3584 40.9818 42.6819C38.6593 41.9076 37.0371 39.6067 37.0371 37.0857V37.0371H38.8828C39.9023 37.0371 40.7285 36.2109 40.7285 35.1914C40.7285 34.1719 39.9023 33.3457 38.8828 33.3457H33.3457V29.6543H40.7285C44.7761 29.6543 48.2344 26.383 48.2344 22.2715V7.38281C48.2344 5.34725 49.8902 3.69141 51.9258 3.69141C53.9613 3.69141 55.6172 5.34725 55.6172 7.38281V44.8602C53.4687 45.6225 51.9258 47.6739 51.9258 50.0801V57.4629C51.9258 58.4824 52.752 59.3086 53.7715 59.3086H55.6172V61.1543C55.6172 62.1738 56.4434 63 57.4629 63C58.4824 63 59.3086 62.1738 59.3086 61.1543V59.3086H61.1543C62.1738 59.3086 63 58.4824 63 57.4629V50.0801C63 47.6739 61.4571 45.6225 59.3086 44.8602V7.38281C59.3086 3.31169 55.9969 0 51.9258 0C47.8547 0 44.543 3.31169 44.543 7.38281V22.2715C44.543 24.2724 42.7963 25.9629 40.7285 25.9629H36.7199C36.9246 25.3851 37.0371 24.7641 37.0371 24.1172C37.0371 22.7002 36.5012 21.4063 35.6226 20.4258C36.5012 19.4453 37.0371 18.1513 37.0371 16.7344C37.0371 16.0874 36.9246 15.4664 36.7199 14.8887H38.8828C39.9023 14.8887 40.7285 14.0624 40.7285 13.043C40.7285 12.0235 39.9023 11.1973 38.8828 11.1973H37.7408L40.6357 2.42393C40.8213 1.86156 40.7256 1.24393 40.3786 0.764237C40.0316 0.284065 39.475 0 38.8828 0H24.1172C23.525 0 22.9689 0.284065 22.6219 0.764237C22.2748 1.24393 22.1787 1.86108 22.3643 2.42345L25.2568 11.1973H24.1172C23.0977 11.1973 22.2715 12.0235 22.2715 13.043C22.2715 14.0624 23.0977 14.8872 24.1172 14.8872H26.2801C26.0754 15.465 25.9629 16.0874 25.9629 16.7344C25.9629 18.1513 26.4988 19.4453 27.3774 20.4258C26.4988 21.4063 25.9629 22.7002 25.9629 24.1172C25.9629 24.7641 26.0754 25.3851 26.2801 25.9629H22.2715C20.2037 25.9629 18.457 24.2724 18.457 22.2715V7.38281C18.457 3.31169 15.1453 0 11.0742 0C7.0031 0 3.69141 3.31169 3.69141 7.38281V44.8602C1.54289 45.6225 0 47.6739 0 50.0801V57.4629C0 58.4824 0.826241 59.3086 1.8457 59.3086V59.3086ZM37.685 59.3086H25.3155C21.5337 59.3086 18.457 56.2872 18.457 52.5732C18.457 50.9707 19.079 49.435 20.1225 48.2344H22.5882C25.4616 48.2344 28.1633 49.3533 30.195 51.385C32.9237 54.1142 36.5521 55.6157 40.4118 55.6157H43.7999C42.6655 57.8042 40.3512 59.3086 37.685 59.3086V59.3086ZM39.8148 46.1839C42.3848 47.0409 44.2382 49.3466 44.5079 51.9258H40.4118C37.5384 51.9258 34.8367 50.8068 32.805 48.7751C30.8247 46.7948 28.3705 45.4605 25.6985 44.8775C28.1133 43.1044 29.6543 40.196 29.6543 37.0857V37.0371H33.3457V37.0857C33.3457 41.1731 36.0056 44.9145 39.8148 46.1839V46.1839ZM59.3086 55.6172H55.6172V50.0801C55.6172 49.0625 56.4454 48.2344 57.4629 48.2344C58.4804 48.2344 59.3086 49.0625 59.3086 50.0801V55.6172ZM29.6543 16.7344C29.6543 15.7168 30.4825 14.8887 31.5 14.8887C32.5175 14.8887 33.3457 15.7168 33.3457 16.7344C33.3457 17.7519 32.5175 18.5801 31.5 18.5801C30.4825 18.5801 29.6543 17.7519 29.6543 16.7344ZM26.669 3.69141H36.3301L33.8533 11.1973H29.1434L26.669 3.69141ZM29.6543 24.1172C29.6543 23.0996 30.4825 22.2715 31.5 22.2715C32.5175 22.2715 33.3457 23.0996 33.3457 24.1172C33.3457 25.1347 32.5175 25.9629 31.5 25.9629C30.4825 25.9629 29.6543 25.1347 29.6543 24.1172ZM3.69141 50.0801C3.69141 49.0625 4.51957 48.2344 5.53711 48.2344C6.55465 48.2344 7.38281 49.0625 7.38281 50.0801V55.6172H3.69141V50.0801Z" fill="black"/>
</g>
<defs>
<clipPath id="clip0">
<rect width="63" height="63" fill="white"/>
</clipPath>
</defs>
</svg>
