<svg width="63" height="63" viewBox="0 0 63 63" fill="none" xmlns="http://www.w3.org/2000/svg">
<g clip-path="url(#clip0)">
<path d="M55.5089 26.0734C55.5036 26.0734 55.4979 26.0734 55.4926 26.0734C51.4287 26.0825 47.6085 27.6701 44.7347 30.5439L43.7455 31.5331C43.6128 31.4221 43.4778 31.3149 43.3384 31.214C44.0175 30.2949 44.4198 29.1596 44.4198 27.9316C44.4198 26.5146 43.8844 25.2207 43.0053 24.2402C43.8844 23.2597 44.4198 21.9657 44.4198 20.5488C44.4198 19.9018 44.3074 19.2808 44.1026 18.7031H46.2655C51.3542 18.7031 55.494 14.5632 55.494 9.47459C55.494 8.45513 54.6678 7.62889 53.6483 7.62889H45.5176L47.9271 2.64935C48.204 2.07785 48.167 1.4035 47.8291 0.865172C47.4917 0.326843 46.901 0 46.2655 0H31.4999C30.8645 0 30.2738 0.326843 29.9364 0.865172C29.599 1.4035 29.562 2.07785 29.8388 2.64935L32.2478 7.62889H24.1171C23.0977 7.62889 22.2714 8.45513 22.2714 9.47459C22.2714 14.5632 26.4113 18.7016 31.4999 18.7016H33.6633C33.4581 19.2794 33.3456 19.9018 33.3456 20.5488C33.3456 21.9657 33.8816 23.2597 34.7602 24.2402C33.8816 25.2207 33.3456 26.5146 33.3456 27.9316C33.3456 29.1596 33.7479 30.2949 34.4271 31.214C34.0008 31.523 33.6057 31.8797 33.2457 32.2776L28.6338 29.9719C27.7225 29.5163 26.6136 29.8859 26.158 30.7972C25.7018 31.709 26.0715 32.8179 26.9833 33.2735L31.4999 35.5321C31.3658 36.0647 31.2894 36.6112 31.274 37.163C23.9484 37.1615 11.0747 37.1606 11.0742 37.1606C4.95407 37.1606 0 42.1132 0 48.2343C0 54.341 4.96801 59.3085 11.0742 59.3085H11.3919C12.1537 61.4565 14.2052 62.9999 16.6113 62.9999C19.0174 62.9999 21.0689 61.4565 21.8312 59.3085H24.1171C25.1366 59.3085 25.9628 58.4822 25.9628 57.4628C25.9628 56.4433 25.1366 55.6171 24.1171 55.6171H21.8312C21.0689 53.4691 19.0174 51.9257 16.6113 51.9257C14.2052 51.9257 12.1537 53.4691 11.3919 55.6171H11.0742C7.00308 55.6171 3.6914 52.3054 3.6914 48.2343C3.6914 44.1545 6.99347 40.8385 11.0742 40.8385C11.0742 40.8385 24.3748 40.8399 31.9056 40.8414L32.8462 44.6169C30.5007 44.7798 28.616 45.2417 27.3399 46.5107C25.1904 48.6496 25.2438 53.4388 29.7244 56.6284L26.5036 59.8492C25.9758 60.377 25.8177 61.171 26.1032 61.8607C26.3892 62.5505 27.0621 62.9999 27.8085 62.9999H49.9569C50.7034 62.9999 51.3763 62.5505 51.6623 61.8607C51.9478 61.171 51.7901 60.377 51.2619 59.8492L48.0411 56.6284C52.5226 53.4383 52.575 48.6491 50.4256 46.5107C49.1499 45.2417 47.2648 44.7798 44.9192 44.6169L45.8589 40.8457C49.5849 40.8476 55.4921 40.8515 55.494 40.8515C59.58 40.8515 62.9999 37.5595 62.9999 33.4413C62.9999 29.3461 59.5522 26.0734 55.5089 26.0734V26.0734ZM16.6113 55.6171C17.6293 55.6171 18.457 56.4452 18.457 57.4628C18.457 58.4803 17.6293 59.3085 16.6113 59.3085C15.5938 59.3085 14.7656 58.4803 14.7656 57.4628C14.7656 56.4452 15.5938 55.6171 16.6113 55.6171ZM40.3377 44.5381C39.3855 44.5429 36.8928 44.5352 36.6304 44.5342L35.0808 38.3377C34.7861 37.1586 35.0462 35.9335 35.7941 34.9755C36.542 34.0181 37.6677 33.4687 38.8827 33.4687C40.0978 33.4687 41.2235 34.0181 41.9714 34.9755C42.7193 35.9335 42.9793 37.1591 42.6847 38.3377L41.1355 44.5342C40.8726 44.5352 40.6068 44.5366 40.3377 44.5381V44.5381ZM34.4434 3.6914H43.322L41.4167 7.62889H36.3487L34.4434 3.6914ZM26.2791 11.3188H51.4864C50.7245 13.4674 48.6722 15.0117 46.2655 15.0117H31.4999C29.0938 15.0117 27.0409 13.4674 26.2791 11.3188ZM40.7284 20.5488C40.7284 21.5663 39.9008 22.3945 38.8827 22.3945C37.8652 22.3945 37.037 21.5663 37.037 20.5488C37.037 19.5313 37.8652 18.7031 38.8827 18.7031C39.9008 18.7031 40.7284 19.5313 40.7284 20.5488ZM37.037 27.9316C37.037 26.914 37.8652 26.0859 38.8827 26.0859C39.9008 26.0859 40.7284 26.914 40.7284 27.9316C40.7284 28.9491 39.9008 29.7773 38.8827 29.7773C37.8652 29.7773 37.037 28.9491 37.037 27.9316ZM44.2756 54.5375C43.72 54.7846 43.3225 55.2898 43.2115 55.8872C43.1009 56.4851 43.2913 57.0989 43.7215 57.5286L45.5013 59.3085H32.2647L34.0445 57.5286C34.4742 57.0989 34.665 56.4851 34.554 55.8872C34.4434 55.2898 34.0455 54.7846 33.4903 54.5375C29.4865 52.7543 29.2457 49.8219 29.9436 49.1278C30.94 48.1367 34.8159 48.2155 37.4091 48.2295C38.3737 48.2343 39.3922 48.2343 40.3574 48.2295C43.3523 48.2136 46.8659 48.1761 47.8224 49.1278C48.4924 49.795 48.3482 52.7236 44.2756 54.5375V54.5375ZM55.494 37.1731C55.4931 37.1731 49.9617 37.1692 46.4914 37.1678C46.4674 36.269 46.2843 35.3841 45.9478 34.5511L47.3451 33.1539C49.5234 30.9751 52.4198 29.7715 55.5008 29.7648H55.5089C57.5224 29.7648 59.3085 31.3956 59.3085 33.4413C59.3085 35.4932 57.5647 37.1731 55.494 37.1731V37.1731Z" fill="black"/>
</g>
<defs>
<clipPath id="clip0">
<rect width="63" height="63" fill="white"/>
</clipPath>
</defs>
</svg>
