<svg width="63" height="63" viewBox="0 0 63 63" fill="none" xmlns="http://www.w3.org/2000/svg">
<g clip-path="url(#clip0)">
<path d="M11.378 44.5536C11.3584 44.6528 11.3383 44.752 11.3221 44.8524C10.5709 49.4699 13.3041 53.8198 17.6533 55.1889L15.0832 60.329C14.7971 60.9012 14.8278 61.5807 15.1641 62.1248C15.5004 62.6689 16.0944 63.0001 16.7341 63.0001H38.8826C39.5223 63.0001 40.1164 62.6689 40.4527 62.1248C40.7889 61.5807 40.8195 60.9012 40.5335 60.329L37.925 55.1121C41.206 54.0277 43.7464 51.296 44.2948 47.9252C45.228 42.1876 40.8214 37.0371 35.1912 37.0371H33.3455V33.0282C35.4937 32.2663 37.0369 30.2148 37.0369 27.8086C37.0369 25.2587 35.3038 23.1071 32.9541 22.4666C33.2057 21.8345 33.3455 21.1465 33.3455 20.4258C33.3455 19.0087 32.8097 17.7148 31.9311 16.7344C32.4086 16.2016 32.7841 15.5761 33.028 14.8887H37.0369C45.1786 14.8887 51.8025 21.5125 51.8025 29.6543V44.8604C49.6542 45.6223 48.1111 47.6739 48.1111 50.0801V57.4629C48.1111 58.4822 48.9375 59.3086 49.9568 59.3086H51.8025V61.1543C51.8025 62.1736 52.6289 63 53.6482 63C54.6675 63 55.4939 62.1736 55.4939 61.1543V59.3086H57.3396C58.3589 59.3086 59.1853 58.4822 59.1853 57.4629V50.0801C59.1853 47.6739 57.6422 45.6223 55.4939 44.8604V29.6543C55.4939 19.4771 47.2141 11.1973 37.0369 11.1973H33.3455V9.19037C35.6457 7.45726 37.0369 4.73177 37.0369 1.8457C37.0369 0.826383 36.2105 0 35.1912 0H20.4256C19.4062 0 18.5799 0.826383 18.5799 1.8457C18.5799 4.73177 19.971 7.45713 22.2713 9.19037V11.212C12.6073 11.5696 4.32426 19.0144 3.8381 28.7061C3.52494 34.9473 6.38861 40.8992 11.378 44.5536V44.5536ZM55.4939 55.6172H51.8025V50.0801C51.8025 49.0624 52.6305 48.2344 53.6482 48.2344C54.6659 48.2344 55.4939 49.0624 55.4939 50.0801V55.6172ZM19.7205 59.3086L21.5662 55.6172H34.0504L35.8961 59.3086H19.7205ZM35.1912 40.7285C38.5394 40.7285 41.2205 43.8326 40.6513 47.3322C40.2252 49.951 37.708 51.9258 34.7961 51.9258H20.4256C17.1105 51.9258 14.3901 48.983 14.9655 45.4451C15.3958 42.8003 17.9677 40.7285 20.8207 40.7285H24.117C25.1363 40.7285 25.9627 39.9021 25.9627 38.8828V33.3457H29.6541V38.8828C29.6541 39.9021 30.4805 40.7285 31.4998 40.7285H35.1912ZM31.4998 29.6543H24.117C23.0992 29.6543 22.2713 28.8263 22.2713 27.8086C22.2713 26.7909 23.0992 25.9629 24.117 25.9629H31.4998C32.5175 25.9629 33.3455 26.7909 33.3455 27.8086C33.3455 28.8263 32.5175 29.6543 31.4998 29.6543ZM29.6541 20.4258C29.6541 21.4435 28.8261 22.2715 27.8084 22.2715C26.7906 22.2715 25.9627 21.4435 25.9627 20.4258C25.9627 19.4081 26.7906 18.5801 27.8084 18.5801C28.8261 18.5801 29.6541 19.4081 29.6541 20.4258ZM33.0272 3.69141C32.5958 4.89579 31.7427 5.92766 30.5714 6.60934C30.0034 6.93984 29.6541 7.54745 29.6541 8.20452V13.043C29.6541 14.0607 28.8261 14.8887 27.8084 14.8887C26.7906 14.8887 25.9627 14.0607 25.9627 13.043V8.20452C25.9627 7.54745 25.6133 6.93984 25.0453 6.60934C23.8741 5.92766 23.021 4.89579 22.5896 3.69141H33.0272ZM7.52471 28.891C7.90554 21.301 14.6224 15.1025 22.5906 14.8943C22.8344 15.5796 23.2094 16.2031 23.6856 16.7343C22.8068 17.7147 22.2711 19.0085 22.2711 20.4257C22.2711 21.1463 22.411 21.8344 22.6625 22.4665C20.3128 23.107 18.5797 25.2586 18.5797 27.8085C18.5797 30.2147 20.1229 32.2662 22.2711 33.0281V37.0371H20.8205C17.5961 37.0371 14.6583 38.625 12.9016 41.0653C9.31627 38.1146 7.28821 33.6061 7.52471 28.891V28.891Z" fill="black"/>
</g>
<defs>
<clipPath id="clip0">
<rect width="63" height="63" fill="white"/>
</clipPath>
</defs>
</svg>
