<svg width="32" height="32" viewBox="0 0 32 32" fill="none" xmlns="http://www.w3.org/2000/svg">
<path d="M16 0.5C7.4375 0.5 0.5 7.4375 0.5 16C0.5 24.5625 7.4375 31.5 16 31.5C24.5625 31.5 31.5 24.5625 31.5 16C31.5 7.4375 24.5625 0.5 16 0.5ZM16 28.5C9.09375 28.5 3.5 22.9062 3.5 16C3.5 9.09375 9.09375 3.5 16 3.5C22.9062 3.5 28.5 9.09375 28.5 16C28.5 22.9062 22.9062 28.5 16 28.5ZM19.8625 21.975L14.5562 18.1187C14.3625 17.975 14.25 17.75 14.25 17.5125V7.25C14.25 6.8375 14.5875 6.5 15 6.5H17C17.4125 6.5 17.75 6.8375 17.75 7.25V16.1063L21.925 19.1437C22.2625 19.3875 22.3312 19.8563 22.0875 20.1938L20.9125 21.8125C20.6688 22.1438 20.2 22.2188 19.8625 21.975Z" fill="black"/>
</svg>
