<svg width="32" height="32" viewBox="0 0 32 32" fill="none" xmlns="http://www.w3.org/2000/svg">
<path d="M16 9C12.1331 9 9 12.1331 9 16C9 19.8669 12.1331 23 16 23C19.8669 23 23 19.8669 23 16C23 12.1331 19.8669 9 16 9ZM16 21.6452C12.881 21.6452 10.3548 19.119 10.3548 16C10.3548 12.881 12.881 10.3548 16 10.3548C19.119 10.3548 21.6452 12.881 21.6452 16C21.6452 19.119 19.119 21.6452 16 21.6452ZM17.7444 18.6984L15.348 16.9569C15.2605 16.8919 15.2097 16.7903 15.2097 16.6831V12.0484C15.2097 11.8621 15.3621 11.7097 15.5484 11.7097H16.4516C16.6379 11.7097 16.7903 11.8621 16.7903 12.0484V16.048L18.6758 17.4198C18.8282 17.5298 18.8593 17.7415 18.7492 17.894L18.2185 18.625C18.1085 18.7746 17.8968 18.8085 17.7444 18.6984Z" fill="black"/>
</svg>
