<svg width="32" height="32" viewBox="0 0 32 32" fill="none" xmlns="http://www.w3.org/2000/svg">
<path d="M21.3073 16.0938L29.2674 8.08033C30.2442 7.09697 30.2442 5.50262 29.2674 4.51846L27.4983 2.73752C26.5215 1.75416 24.9377 1.75416 23.9601 2.73752L16 10.7509L8.03989 2.73752C7.06307 1.75416 5.47932 1.75416 4.5017 2.73752L2.73261 4.51846C1.7558 5.50182 1.7558 7.09617 2.73261 8.08033L10.6927 16.0938L2.73261 24.1072C1.7558 25.0905 1.7558 26.6849 2.73261 27.669L4.5017 29.45C5.47852 30.4333 7.06307 30.4333 8.03989 29.45L16 21.4366L23.9601 29.45C24.9369 30.4333 26.5215 30.4333 27.4983 29.45L29.2674 27.669C30.2442 26.6857 30.2442 25.0913 29.2674 24.1072L21.3073 16.0938Z" fill="black"/>
</svg>
