<svg width="32" height="32" viewBox="0 0 32 32" fill="none" xmlns="http://www.w3.org/2000/svg">
<path d="M18.6536 16L22.6337 12.0199C23.1221 11.5315 23.1221 10.7397 22.6337 10.2509L21.7491 9.36631C21.2607 8.8779 20.4689 8.8779 19.9801 9.36631L16 13.3464L12.0199 9.36631C11.5315 8.8779 10.7397 8.8779 10.2509 9.36631L9.36631 10.2509C8.8779 10.7393 8.8779 11.5311 9.36631 12.0199L13.3464 16L9.36631 19.9801C8.8779 20.4685 8.8779 21.2603 9.36631 21.7491L10.2509 22.6337C10.7393 23.1221 11.5315 23.1221 12.0199 22.6337L16 18.6536L19.9801 22.6337C20.4685 23.1221 21.2607 23.1221 21.7491 22.6337L22.6337 21.7491C23.1221 21.2607 23.1221 20.4689 22.6337 19.9801L18.6536 16Z" fill="black"/>
</svg>
