<svg width="32" height="32" viewBox="0 0 32 32" fill="none" xmlns="http://www.w3.org/2000/svg">
<rect opacity="0.1" width="32" height="32" rx="16" fill="#438E56"/>
<path fill-rule="evenodd" clip-rule="evenodd" d="M15.0546 22.6143C13.3543 21.0809 10 17.7142 10 15.0184C10 11.4073 12.4073 9 16.0184 9C19.6294 9 22.0367 12.0092 22.0367 15.0184C22.0367 17.2832 18.6274 20.9118 16.9408 22.5683C16.4169 23.0828 15.5999 23.1061 15.0546 22.6143ZM18.0245 14.2158C18.0245 15.3238 17.1263 16.2219 16.0184 16.2219C14.9104 16.2219 14.0122 15.3238 14.0122 14.2158C14.0122 13.1079 14.9104 12.2097 16.0184 12.2097C17.1263 12.2097 18.0245 13.1079 18.0245 14.2158Z" fill="#438E56"/>
</svg>
