<svg width="23" height="28" viewBox="0 0 23 28" fill="none" xmlns="http://www.w3.org/2000/svg">
<path fill-rule="evenodd" clip-rule="evenodd" d="M4.24121 0C3.13664 0 2.24121 0.895428 2.24121 2V24.6513H9.37705V20.4616C9.37705 19.9093 9.82477 19.4616 10.3771 19.4616H12.2694C12.8216 19.4616 13.2694 19.9093 13.2694 20.4616V24.6513H20.4053V2C20.4053 0.895431 19.5099 0 18.4053 0H4.24121ZM7.13341 2.59487C6.58113 2.59487 6.13341 3.04258 6.13341 3.59487V5.48718C6.13341 6.03946 6.58113 6.48718 7.13341 6.48718H9.02572C9.578 6.48718 10.0257 6.03946 10.0257 5.48718V3.59487C10.0257 3.04258 9.578 2.59487 9.02572 2.59487H7.13341ZM12.6207 3.59487C12.6207 3.04258 13.0684 2.59487 13.6207 2.59487H15.513C16.0653 2.59487 16.513 3.04258 16.513 3.59487V5.48718C16.513 6.03946 16.0653 6.48718 15.513 6.48718H13.6207C13.0684 6.48718 12.6207 6.03946 12.6207 5.48718V3.59487ZM13.6207 7.78461C13.0684 7.78461 12.6207 8.23233 12.6207 8.78461V10.6769C12.6207 11.2292 13.0684 11.6769 13.6207 11.6769H15.513C16.0653 11.6769 16.513 11.2292 16.513 10.6769V8.78461C16.513 8.23233 16.0653 7.78461 15.513 7.78461H13.6207ZM6.13341 8.78461C6.13341 8.23233 6.58113 7.78461 7.13341 7.78461H9.02572C9.578 7.78461 10.0257 8.23233 10.0257 8.78461V10.6769C10.0257 11.2292 9.578 11.6769 9.02572 11.6769H7.13341C6.58113 11.6769 6.13341 11.2292 6.13341 10.6769V8.78461ZM7.13341 12.9743C6.58113 12.9743 6.13341 13.4221 6.13341 13.9743V15.8667C6.13341 16.4189 6.58113 16.8667 7.13341 16.8667H9.02572C9.578 16.8667 10.0257 16.4189 10.0257 15.8667V13.9743C10.0257 13.4221 9.578 12.9743 9.02572 12.9743H7.13341ZM12.6207 13.9743C12.6207 13.4221 13.0684 12.9743 13.6207 12.9743H15.513C16.0653 12.9743 16.513 13.4221 16.513 13.9743V15.8667C16.513 16.4189 16.0653 16.8667 15.513 16.8667H13.6207C13.0684 16.8667 12.6207 16.4189 12.6207 15.8667V13.9743Z" fill="#187330"/>
<path opacity="0.3" d="M0 27.5821C0 25.9351 1.33513 24.6 2.98211 24.6H20.0179C21.6649 24.6 23 25.9351 23 27.5821C23 27.592 22.992 27.6 22.9821 27.6H0.0178931C0.00801124 27.6 0 27.592 0 27.5821Z" fill="#187330"/>
</svg>
