<svg width="286" height="361" viewBox="0 0 286 361" fill="none" xmlns="http://www.w3.org/2000/svg">
<path fill-rule="evenodd" clip-rule="evenodd" d="M84.7249 169.978C88.2433 172.104 91.7003 173.131 93.3231 172.712C97.3923 171.66 97.7664 156.739 94.6179 150.857C91.4694 144.975 75.2834 142.411 74.4675 154.066C74.1844 158.11 75.8789 161.72 78.3825 164.666L73.8933 185.639H86.9333L84.7249 169.978Z" fill="#B28B67"/>
<path fill-rule="evenodd" clip-rule="evenodd" d="M89.4672 144.45C87.6854 143.906 85.0988 143.721 84.0107 143.846C84.6296 142.36 84.8752 140.703 84.675 139.091C84.4804 137.524 83.7819 136.19 83.1359 134.792C82.8381 134.148 82.5007 133.507 81.9976 133.014C81.485 132.512 80.8362 132.18 80.1559 132.022C79.4597 131.86 78.7318 131.874 78.0345 132.021C77.726 132.086 77.4492 132.227 77.1467 132.306C76.8369 132.386 76.6867 132.192 76.4618 131.996C75.9199 131.526 75.1255 131.294 74.4399 131.21C73.6708 131.117 72.8727 131.233 72.1391 131.487C71.4251 131.734 70.7392 132.134 70.223 132.718C69.9931 132.978 69.7845 133.273 69.6489 133.6C69.5933 133.734 69.5841 133.813 69.4507 133.862C69.3273 133.908 69.183 133.909 69.0557 133.952C67.8246 134.37 66.772 135.324 66.1989 136.548C65.8645 137.262 65.7061 138.52 65.7495 139.929C65.7929 141.338 67.0625 145.016 68.25 146.357C69.3099 147.554 70.8679 148.344 72.3715 148.69C71.3735 149.834 70.7092 151.262 70.2179 152.716C69.6843 154.294 69.354 155.934 69.2321 157.605C69.1162 159.193 69.1055 160.872 69.4769 162.426C69.8242 163.879 70.5672 165.071 71.8074 165.827C72.3755 166.174 72.9867 166.434 73.6015 166.672C74.2073 166.906 74.815 167.134 75.4496 167.265C76.6508 167.514 78.0347 167.472 78.9599 166.513C79.2934 166.168 79.6601 165.734 79.9034 165.312C79.9909 165.16 80.0436 165.061 79.9374 164.912C79.81 164.735 79.6041 164.599 79.4406 164.46C78.5079 163.667 77.9306 162.609 77.785 161.352C77.6374 160.076 77.9792 158.43 79.2166 157.873C80.744 157.186 82.426 157.975 83.7836 158.71C84.3605 156.669 85.5452 154.831 87.4025 153.895C89.4573 152.859 91.8151 152.738 93.9267 151.849C94.477 151.618 95.0374 151.355 95.4425 150.883C95.6118 150.686 95.8104 150.43 95.878 150.169C95.9668 149.827 95.7464 149.539 95.5761 149.272C94.6732 147.856 91.249 144.995 89.4672 144.45Z" fill="#191847"/>
<path fill-rule="evenodd" clip-rule="evenodd" d="M69.5467 230.84L89.9927 297.839L99.8973 354.818H107.663L97.1974 230.84H69.5467Z" fill="#997659"/>
<path fill-rule="evenodd" clip-rule="evenodd" d="M62.2322 230.84C63.6209 267.626 61.9865 286.601 61.6757 289.944C61.3649 293.286 57.1088 314.957 47.0329 355.94L55.3081 353.091C71.232 315.503 76.6583 295.969 78.4847 291.033C80.311 286.097 85.1617 266.033 93.0368 230.84H62.2322Z" fill="#B28B67"/>
<path fill-rule="evenodd" clip-rule="evenodd" d="M49.5228 352.823C48.4288 352.402 47.1488 352.87 46.7857 353.985C46.4741 354.941 46.1833 356.017 46.1833 356.701C46.1833 358.174 46.673 361 46.673 361C48.378 361 77.318 361 77.318 361C77.318 361 78.5125 357.042 75.9389 356.726C73.3653 356.41 71.663 356.156 71.663 356.156L57.8498 349.984C57.3348 349.754 56.7315 349.995 56.517 350.516L55.7804 352.307C55.7804 352.307 53.3978 353.422 51.9083 353.422C51.26 353.422 50.3471 353.141 49.5228 352.823Z" fill="#E4E4E4"/>
<path fill-rule="evenodd" clip-rule="evenodd" d="M100.596 352.823C99.5022 352.402 98.2221 352.87 97.859 353.985C97.5475 354.941 97.2567 356.017 97.2567 356.701C97.2567 358.174 97.7464 361 97.7464 361C99.4513 361 128.391 361 128.391 361C128.391 361 129.586 357.042 127.012 356.726C124.439 356.41 122.736 356.156 122.736 356.156L108.923 349.984C108.408 349.754 107.805 349.995 107.59 350.516L106.854 352.307C106.854 352.307 104.471 353.422 102.982 353.422C102.333 353.422 101.42 353.141 100.596 352.823Z" fill="#E4E4E4"/>
<path fill-rule="evenodd" clip-rule="evenodd" d="M66.83 230.84L75.5233 264.976H102.076L98.1171 230.84H66.83Z" fill="#185C90"/>
<path fill-rule="evenodd" clip-rule="evenodd" d="M61.94 230.84C57.6494 243.732 60.31 264.976 60.31 264.976H87.4062L94.8571 230.84H61.94Z" fill="#297EBF"/>
<path fill-rule="evenodd" clip-rule="evenodd" d="M132.776 237.244L117.384 222.193L112.272 231.06L128.277 240.518C132.29 246.854 134.647 249.592 135.348 248.731C135.939 248.006 135.668 247.21 135.419 246.478C135.224 245.907 135.043 245.374 135.292 244.942C135.861 243.956 139.074 244.52 142.101 245.187C145.127 245.854 144.427 244.364 143.784 243.586C140.923 241.272 137.254 239.158 132.776 237.244ZM42.0529 259.11C43.6451 255.872 49.0673 224.316 49.0673 224.316L60.4216 224.361C60.4216 224.361 49.9055 258.388 49.0673 260.47C47.9785 263.174 49.828 267.104 51.0821 269.768C51.2761 270.181 51.4559 270.563 51.6083 270.905C49.8682 271.686 49.0323 270.742 48.151 269.748C47.1557 268.624 46.1024 267.436 43.6231 268.592C42.6652 269.039 41.7588 269.567 40.8732 270.083C37.8143 271.865 35.0042 273.502 31.1814 271.138C30.5753 270.763 29.9112 269.352 31.5158 268.249C35.5135 265.501 41.2745 260.692 42.0529 259.11Z" fill="#B28B67"/>
<path fill-rule="evenodd" clip-rule="evenodd" d="M81.3343 176.561L86.0326 175.753C94.1215 196.007 108.244 214.41 128.4 230.963L113.169 249.51C93.0154 225.941 80.5928 201.625 81.3343 176.561Z" fill="#191847"/>
<path fill-rule="evenodd" clip-rule="evenodd" d="M60.8533 235.742H102.69C102.69 235.742 88.1511 200.309 88.1511 175.542L75.531 173.657C65.6129 189.646 62.812 209.331 60.8533 235.742Z" fill="#DDE3E9"/>
<path fill-rule="evenodd" clip-rule="evenodd" d="M41.8367 253.714C46.412 201.974 75.2538 173.657 75.2538 173.657L75.2639 173.666C75.2655 173.663 75.2672 173.66 75.2688 173.657H76.0926C77.5712 173.708 80.5968 173.841 80.5968 173.841L83.6462 182.576C84.1301 198.551 89.2974 246.964 89.2974 246.964H61.9128C61.9594 249.184 62.0625 251.435 62.2283 253.714H41.8367Z" fill="#2F3676"/>
<path fill-rule="evenodd" clip-rule="evenodd" d="M61.9175 247.178C61.6989 237.512 62.5544 228.435 63.9817 220.222C64.7282 229.968 66.2883 241.696 69.5467 247.178H61.9175Z" fill="black" fill-opacity="0.1"/>
<path fill-rule="evenodd" clip-rule="evenodd" d="M67.9769 230.296L81.5 223.994V230.296H67.9769Z" fill="white" fill-opacity="0.2"/>
<g opacity="0.5">
<path fill-rule="evenodd" clip-rule="evenodd" d="M238.465 173.96C240.41 171.597 244.018 165.594 246.755 164.749C248.518 164.205 248.004 169.833 248.025 170.906C248.11 175.057 247.636 179.182 247.051 183.298C245.996 190.722 242.547 197.333 237.817 203.652C235.383 206.903 232.528 210.194 228.574 212.222C226.754 213.157 224.563 213.313 222.766 214.118C220.672 215.055 221.813 214.297 220.869 216.157C219.559 218.739 219.14 222.07 218.534 224.825C215.75 237.473 209.012 304.33 210.18 317.195C210.284 318.335 208.419 318.608 208.325 317.216C207.831 309.835 212.113 258.721 214.273 242.006C216.434 225.29 218.62 210.523 220.812 204.74C223.472 197.724 228.275 189.287 232.273 182.744C234.13 179.704 236.154 176.769 238.465 173.96Z" fill="#69A1AC"/>
<path fill-rule="evenodd" clip-rule="evenodd" d="M252.898 255.943C257.957 252.776 263.434 258.753 258.856 261.92C256.324 263.67 253.678 263.048 252.189 261.589C251.222 262.594 250.316 263.644 249.447 264.532C246.797 267.236 244.292 270.005 241.899 272.839C236.927 278.726 232.666 284.945 228.21 291.05C223.814 297.076 219.452 303.132 215.467 309.31C212.091 314.545 207.591 320.703 206.435 326.442C208.189 314.271 214.843 302.573 222.768 291.844C230.628 281.203 239.648 269.581 251.818 261.183C250.579 259.631 250.545 257.414 252.898 255.943Z" fill="#C1DEE2"/>
<path fill-rule="evenodd" clip-rule="evenodd" d="M156.885 226.261C159.717 226.733 164.343 232.193 166.677 234.274C169.451 236.746 171.967 239.381 174.339 242.142C179.446 248.085 184.013 254.403 187.896 260.993C194.227 271.734 199.299 282.761 202.98 294.458C205.233 301.618 206.692 309.039 207.557 316.409C207.72 317.798 209.429 328.514 206.967 328.802C204.751 329.063 205.436 320.666 205.329 319.524C204.121 306.639 200.502 294.102 195.468 281.957C194.372 279.311 193.353 276.071 191.6 273.69C190.337 271.975 191.591 272.573 189.372 271.924C187.466 271.366 185.296 271.503 183.344 270.82C179.106 269.338 175.712 266.461 172.737 263.568C166.955 257.944 162.373 251.86 159.985 244.654C158.66 240.659 157.443 236.64 156.767 232.521C156.593 231.457 155.062 225.957 156.885 226.261Z" fill="#69A1AC"/>
<path fill-rule="evenodd" clip-rule="evenodd" d="M168.059 135.41C178.724 151.179 187.489 168.5 193.148 186.044C196.577 196.673 198.974 207.58 201.357 218.409C205.046 235.176 208.535 251.941 209.528 269.006C210.526 286.17 212.501 305.966 205.908 322.497C209.201 305.713 206.066 287.848 205.511 270.961C205.246 262.899 204.477 254.915 203.468 246.901C202.49 239.126 200.891 231.388 199.402 223.674C198.677 219.917 197.916 216.166 197.14 212.417C196.909 211.299 196.811 207.98 195.979 207.216C195.141 206.446 190.867 206.133 189.525 205.569C186.823 204.432 184.282 202.817 182.032 201.111C177.72 197.841 173.969 193.568 171.008 189.356C164.158 179.609 161.419 167.714 161.557 156.427C161.584 154.235 165.718 130.635 164.058 130.31C164.158 130.21 164.253 130.107 164.342 130C165.599 131.794 166.832 133.601 168.059 135.41Z" fill="#89C5CC"/>
<path fill-rule="evenodd" clip-rule="evenodd" d="M283.174 192.28C283.338 192.078 284.409 190.671 283.87 190.761C284.968 190.578 282.359 192.313 285.096 191.248C283.796 192.294 284.546 193.653 284.563 195.061C284.592 197.346 284.143 199.613 283.638 201.85C282.84 205.385 281.652 208.822 279.926 212.111C276.166 219.277 269.781 226.175 262.2 230.655C258.458 232.867 254.79 233.62 250.522 234.639C247.826 235.282 247.612 236.471 246.181 238.701C243.202 243.346 240.276 247.975 237.648 252.777C234.511 258.51 231.465 264.251 228.592 270.086C218.914 289.74 211.037 310.102 206.9 331.175C206.799 318.757 210.169 305.967 214.419 294.131C217.516 285.507 221.546 277.193 225.846 268.964C226.888 266.971 228.466 264.406 228.909 262.205C229.218 260.663 228.271 259.18 227.838 257.556C226.147 251.23 226.268 244.142 227.753 237.782C229.39 230.769 234.123 227.514 242.131 226.521C245.059 226.157 248.782 226.291 251.467 225.226C254.393 224.067 255.599 220.257 257.263 217.811C261.731 211.241 267.041 204.939 273.137 199.403C274.825 197.87 276.64 196.456 278.566 195.145C279.78 194.318 282.346 193.299 283.174 192.28Z" fill="#89C5CC"/>
<path fill-rule="evenodd" clip-rule="evenodd" d="M191.682 323.421C191.171 320.466 193.446 317.763 196.444 317.763H218.74C221.738 317.763 224.013 320.466 223.502 323.421L222.967 326.515C221.673 333.995 215.183 339.459 207.592 339.459C200.001 339.459 193.511 333.995 192.217 326.515L191.682 323.421Z" fill="#C1DEE2"/>
</g>
<path fill-rule="evenodd" clip-rule="evenodd" d="M230.755 327.217C230.755 333.902 231.491 339.321 241.369 339.321C251.247 339.321 251.983 333.902 251.983 327.217" fill="#EFEFEF"/>
<path fill-rule="evenodd" clip-rule="evenodd" d="M244.308 323.046C243.946 323.495 243.623 323.952 243.338 324.417C243.327 323.46 243.401 322.496 243.603 321.519C243.947 319.846 244.474 318.181 244.968 316.518C245.324 315.324 245.301 313.178 246.65 312.226C247.02 312.021 247.109 312.424 247.109 312.599C247.113 312.636 247.108 311.884 246.749 312.015C244.615 312.805 243.923 315.289 243.24 316.533C242.244 318.348 241.395 320.204 241.046 322.092C240.958 322.57 240.91 323.046 240.899 323.523C240.826 323.395 240.758 323.267 240.683 323.14C239.451 321.07 237.789 319.049 235.716 317.186C235.206 316.728 228.79 312.204 228.288 312.896C228.338 312.997 228.441 313.08 228.6 313.147C228.609 313.154 228.609 313.15 228.604 313.139C228.981 313.575 230.052 314.249 230.386 314.631C231.225 315.593 231.878 316.614 232.541 317.616C233.943 319.732 235.243 321.87 236.503 324.012C236.796 324.511 237.102 325.007 237.414 325.502C234.198 322.176 229.907 319.157 224 317.429C226.017 318.164 227.34 319.549 228.703 320.608C230.346 321.887 232.077 323.131 233.723 324.408C235.665 325.914 237.95 327.5 239.817 329.167C241.626 331.89 243.385 334.615 244.47 337.477C244.025 336.488 244.435 335.122 244.359 334.084C244.298 333.258 244.164 332.439 243.979 331.621C244.207 331.99 244.404 332.359 244.493 332.702C244.412 332.126 244.318 331.554 244.217 330.985C244.476 330.452 244.729 329.955 244.901 329.545C245.779 327.444 246.825 325.379 248.249 323.366C249.567 321.504 251.078 319.666 252.725 317.883C253.494 317.052 254.273 316.225 255.047 315.395C255.553 314.853 256.036 313.983 256.741 313.463C252.182 316.451 247.2 319.461 244.308 323.046Z" fill="#EFEFEF"/>
<path opacity="0.2" fill-rule="evenodd" clip-rule="evenodd" d="M97.9014 22.2139C96.0948 21.0482 93.2901 21.7928 91.4701 22.4822C90.7689 22.7481 88.9767 23.5981 87.6472 24.5545C87.8232 23.8919 87.9802 23.2235 88.1174 22.5497C88.6813 19.779 89.0702 16.9559 89.2581 14.1493C89.307 13.4173 89.2444 12.5994 89.1808 11.7708L89.1807 11.7691C89.1592 11.489 89.1377 11.2076 89.1203 10.9279C89.1932 10.8617 89.2423 10.7702 89.263 10.6464C89.2707 10.6977 89.275 10.7389 89.2783 10.7704C89.2836 10.8207 89.2863 10.8463 89.2956 10.849C89.3053 10.8518 89.322 10.8301 89.3561 10.7861C89.3692 10.7692 89.3848 10.7491 89.4035 10.7258C90.7492 9.02658 91.8796 7.11215 92.036 5.00808C92.1685 3.2236 90.4345 -0.151901 87.9726 2.18641C86.8711 3.2307 87.1526 10.5614 88.8057 11.0099C88.3626 13.4393 87.8058 15.8646 87.1087 18.2591C87.0044 18.2436 86.8981 18.2423 86.7929 18.2544C86.8033 17.6592 86.8047 17.0096 86.776 16.7863C86.5294 14.8624 84.6289 10.957 81.5993 11.7167C79.2713 12.3006 80.6965 14.6992 81.4881 15.749C82.7622 17.4392 84.2042 18.1706 86.0304 19.049C86.0667 19.4124 86.344 19.6235 86.6715 19.692C85.446 23.5591 83.8367 27.331 81.7316 30.894L81.6757 30.6677C81.4094 29.5866 81.0988 28.326 80.9017 28.0613C79.8719 26.676 77.591 24.9844 75.4865 25.8053C71.0661 27.5316 75.86 32.4857 79.622 33.0232C79.7783 33.2057 79.9437 33.3525 80.1196 33.4366C79.388 34.5122 78.6061 35.5654 77.7695 36.5915C76.5149 38.135 75.1665 39.6735 73.753 41.203C73.7101 40.0071 73.1526 37.3418 72.9942 37.0554C72.0306 35.3166 69.2511 33.5283 66.9945 34.7648C64.4565 36.1589 66.7554 38.7903 68.2018 39.981C68.7947 40.4692 71.7274 42.2579 72.7622 42.2656C69.3471 45.8725 65.578 49.4179 61.7459 52.8352C62.0641 51.3059 62.4811 47.0948 62.4351 46.6275C62.1988 44.2152 60.3244 40.3576 56.6266 41.2994C53.039 42.2116 54.6235 46.2193 55.8502 48.1295C56.5932 49.2856 57.6209 50.4602 58.8605 51.2662C59.084 51.4114 59.3759 51.5299 59.6672 51.6482C60.0186 51.7909 60.3692 51.9332 60.5983 52.1217C60.8024 52.2898 60.865 52.4829 60.927 52.6743C60.9925 52.8764 61.0575 53.0768 61.288 53.244C59.2171 55.0828 57.1316 56.8833 55.0761 58.6338C54.1062 59.46 53.1188 60.2702 52.1216 61.0703C51.5764 60.8795 50.7987 61.1311 50.8388 61.7835C50.8446 61.8782 50.8705 61.96 50.9054 62.0349C50.1497 62.6289 49.3892 63.2188 48.6227 63.8022C48.6403 63.6323 48.6354 63.3928 48.6004 63.062C49.1516 63.7247 49.1291 62.7591 49.1119 62.0231C49.1059 61.763 49.1005 61.5315 49.1213 61.4107C49.2026 60.9377 49.3078 60.4693 49.4128 60.0016C49.637 59.0025 49.8606 58.0066 49.8501 56.9757C49.8273 54.7873 48.1892 51.1197 44.7365 52.4243C41.5618 53.6217 42.7147 56.8646 43.9108 58.8975C44.668 60.1839 45.7045 61.3324 46.7879 62.4319C46.9811 62.6282 47.1954 62.8939 47.4077 63.157C47.7228 63.5477 48.0332 63.9325 48.2628 64.0757C45.3147 66.309 42.2972 68.4767 39.2795 70.6445L39.2789 70.6449C37.9271 71.616 36.5753 72.5871 35.2297 73.5641C35.1712 73.3499 35.123 73.1374 35.0814 72.9386C35.1655 73.0189 35.2799 73.0563 35.4268 73.0489C35.466 72.8847 35.5227 72.6666 35.5909 72.4045L35.591 72.4041C36.4236 69.2032 38.9595 59.4539 32.1078 61.3462C27.0878 62.7366 30.6255 71.2232 34.3672 74.1908C32.0945 75.8496 29.8433 77.5296 27.6447 79.2597C26.0538 80.5115 24.5099 81.8062 23.0247 83.1439C23.7938 81.4122 24.5189 79.1706 24.045 77.3869C23.3549 74.7914 20.1156 72.3417 16.9507 73.8202C13.0052 75.6713 16.0382 78.1957 18.8824 80.563C20.3346 81.7717 21.7377 82.9395 22.1373 83.9557C17.416 88.344 13.3844 93.2186 10.6892 98.7705C7.75791 104.808 5.0353 112.92 6.5343 119.673C6.25854 116.704 7.44771 112.975 8.28284 110.356L8.28295 110.355C8.39663 109.999 8.50375 109.663 8.59972 109.352C9.8546 105.291 11.6363 101.338 13.9833 97.6388C17.7427 91.7135 22.7068 86.6829 28.4371 82.115C29.7411 82.4986 31.1572 83.2092 32.3301 83.7977L32.3303 83.7978C33.0495 84.1587 33.6773 84.4738 34.1316 84.6392C36.3226 85.4375 40.5296 86.5811 41.9273 84.0633C43.3015 81.5874 39.7984 80.2046 37.6272 79.6507C35.529 79.1163 33.637 79.1817 31.6791 79.6214C34.7121 77.3481 37.8191 75.1467 40.9254 72.9458C41.4969 72.5409 42.0683 72.1361 42.6392 71.7308C43.4281 72.2775 44.2994 73.0678 45.2246 73.907C48.1607 76.5705 51.6391 79.7259 54.7489 77.1453C59.442 73.2509 50.473 69.2986 46.6507 69.6092C46.1815 69.647 45.7274 69.7308 45.2847 69.8448C49.1842 67.0461 53.0234 64.1899 56.6545 61.133C57.3059 61.2331 58.3422 62.0428 59.5871 63.0154C62.385 65.2015 66.2367 68.2107 69.1407 65.8387C71.237 64.1265 70.5212 61.4613 68.4967 59.9381C66.4644 58.4084 63.5164 58.4122 61.0105 58.9289C59.9273 59.151 58.9278 59.5747 57.9959 60.091L57.8802 60.0964C61.4533 57.0565 65.0483 53.9485 68.511 50.7345L68.5908 50.7562L68.6953 50.7848C68.9044 51.0014 69.2547 51.0805 69.5757 51.0325C69.7524 51.0836 69.9332 51.1363 70.1175 51.19C72.8582 51.9887 76.3808 53.0152 79.1132 52.5706C81.1243 52.2434 82.9496 50.8607 81.2485 49.1601C79.8655 47.777 76.111 47.9774 74.2799 48.3059C73.3864 48.4664 72.4134 48.9307 71.4371 49.3967C71.0269 49.5924 70.6162 49.7885 70.2105 49.9623C70.1053 49.7828 69.9216 49.6675 69.7122 49.6122C73.1316 46.3825 76.3945 43.0412 79.3542 39.5549C80.2493 39.6717 81.2419 40.0037 82.2657 40.3462C84.7294 41.1701 87.3734 42.0544 89.2725 40.1466C92.0762 37.3295 86.8075 35.6882 84.3024 35.9568C83.4565 36.0474 82.6223 36.2504 81.8169 36.5184C83.9708 33.6483 85.6163 30.5807 86.7729 27.3592C86.7841 27.364 86.7945 27.3689 86.8048 27.3738C86.8211 27.3815 86.8374 27.3892 86.8574 27.3966C86.84 27.3886 86.8247 27.3803 86.8095 27.372L86.8093 27.372C86.7981 27.3658 86.7869 27.3598 86.7749 27.3539C86.8903 27.0315 87.0011 26.7078 87.1066 26.3829C87.3023 26.2907 87.4852 26.2229 87.5728 26.1949C86.4342 26.8588 91.2356 27.1813 92.1349 27.2417C94.1228 27.375 96.7859 27.424 98.2452 26.0466C99.4708 24.8895 99.4003 23.181 97.9014 22.2139ZM6.23658 119.407C6.32443 120.308 6.58532 121.132 7.09896 121.806C6.7219 121.035 6.43911 120.232 6.23658 119.407Z" fill="#C1DEE2"/>
</svg>
