<svg width="33" height="43" viewBox="0 0 33 43" fill="none" xmlns="http://www.w3.org/2000/svg">
<path opacity="0.3" d="M31.7707 31.7868L25.0614 24.1873H27.6337C28.3904 24.1873 29.0597 23.7674 29.3789 23.0905C29.698 22.4153 29.593 21.641 29.1034 21.0707L22.5419 13.4377H24.9682C25.7324 13.4377 26.421 12.9884 26.72 12.2947C27.0156 11.6119 26.8762 10.8174 26.3639 10.2724L17.1033 0.40626C16.5969 -0.13542 15.6521 -0.13542 15.1448 0.40626L5.88337 10.2724C5.37108 10.8174 5.23251 11.6119 5.52729 12.2947C5.82626 12.9884 6.51575 13.4377 7.27998 13.4377H9.70621L3.14389 21.0724C2.65596 21.6418 2.55098 22.4153 2.86927 23.0913C3.1884 23.7674 3.8569 24.1873 4.61441 24.1873H7.18676L0.477481 31.7868C-0.0264081 32.357 -0.140623 33.1381 0.178507 33.8242C0.493437 34.5002 1.18628 34.9369 1.94296 34.9369H13.4367V36.9903L10.8929 41.055C10.4461 41.9486 11.0961 43 12.0946 43H20.1535C21.152 43 21.8021 41.9486 21.3553 41.055L18.8115 36.9903V34.9369H30.3052C31.0619 34.9369 31.7547 34.5002 32.0696 33.8242C32.3888 33.1381 32.2746 32.357 31.7707 31.7868Z" fill="#165727"/>
<path opacity="0.3" fill-rule="evenodd" clip-rule="evenodd" d="M25.0614 24.1873L31.7707 31.7868C32.2746 32.357 32.3888 33.1381 32.0696 33.8242C31.7618 34.4851 31.0927 34.9173 30.3559 34.9363H1.89223C1.15545 34.9173 0.486385 34.4851 0.178507 33.8242C-0.140623 33.1381 -0.0264081 32.357 0.477481 31.7868L7.18676 24.1873H4.61441C3.8569 24.1873 3.1884 23.7674 2.86927 23.0913C2.55098 22.4153 2.65596 21.6418 3.14389 21.0724L9.70621 13.4377H7.27998C6.51575 13.4377 5.82626 12.9884 5.52729 12.2947C5.23251 11.6119 5.37108 10.8174 5.88337 10.2724L15.1448 0.406262C15.6521 -0.135421 16.5969 -0.135421 17.1033 0.406262L26.3639 10.2724C26.8762 10.8174 27.0156 11.6119 26.72 12.2947C26.421 12.9884 25.7324 13.4377 24.9682 13.4377H22.5419L29.1034 21.0708C29.593 21.641 29.698 22.4153 29.3789 23.0905C29.0597 23.7674 28.3904 24.1873 27.6337 24.1873H25.0614Z" fill="#165727"/>
<path opacity="0.3" fill-rule="evenodd" clip-rule="evenodd" d="M27.6855 24.1866C28.4208 24.168 29.067 23.7519 29.3788 23.0905C29.6979 22.4153 29.593 21.641 29.1034 21.0708L22.5419 13.4377H24.9681C25.7323 13.4377 26.421 12.9884 26.72 12.2947C27.0156 11.6119 26.8762 10.8174 26.3639 10.2724L17.1032 0.406262C16.5968 -0.135421 15.652 -0.135421 15.1448 0.406262L5.88331 10.2724C5.37102 10.8174 5.23245 11.6119 5.52723 12.2947C5.8262 12.9884 6.51569 13.4377 7.27992 13.4377H9.70615L3.14383 21.0724C2.6559 21.6418 2.55092 22.4153 2.86921 23.0913C3.18104 23.7519 3.82644 24.168 4.56251 24.1866H27.6855Z" fill="#165727"/>
<path opacity="0.3" fill-rule="evenodd" clip-rule="evenodd" d="M7.23083 13.437H25.0179C25.7623 13.4181 26.4278 12.9734 26.7203 12.2947C27.0159 11.6119 26.8765 10.8174 26.3642 10.2724L17.1036 0.406262C16.5972 -0.135421 15.6524 -0.135421 15.1451 0.406262L5.88366 10.2724C5.37137 10.8174 5.2328 11.6119 5.52758 12.2947C5.82009 12.9734 6.48642 13.4181 7.23083 13.437Z" fill="#165727"/>
</svg>
