<svg width="247" height="332" viewBox="0 0 247 332" fill="none" xmlns="http://www.w3.org/2000/svg">
<g opacity="0.7">
<path fill-rule="evenodd" clip-rule="evenodd" d="M10.9381 175.921C16.4789 175.676 23.3313 178.434 23.9225 183.568C24.3519 187.299 24.2189 191.019 24.8835 194.744C25.4149 197.721 26.5387 200.579 28.0715 203.291C29.5454 205.898 32.6028 208.118 33.398 210.904C33.9048 212.679 33.6211 215.176 32.9221 216.913C32.0721 219.024 32.5239 218.857 34.2176 220.628C37.5364 224.1 40.5248 227.659 42.6381 231.806C45.6821 237.777 47.6778 244.758 46.548 251.294C46.4043 252.125 46.2339 255.103 44.8931 255.312C43.3956 255.544 44.0958 253.841 44.1757 253.29C44.6853 249.779 45.138 246.71 44.5234 243.143C42.1518 229.383 30.5726 220.317 23.0329 208.638C22.6184 208.036 21.7434 206.602 21.135 205.656C20.1745 204.162 19.2089 201.32 17.9087 200.212C15.4598 198.126 17.7112 202.321 18.1883 203.121C18.7917 204.134 19.4554 205.211 20.0736 206.099C22.9024 210.213 26.0599 214.704 28.9814 218.945C16.346 221.4 7.4473 208.45 4.05652 199.936C1.26279 192.921 -2.0798 176.522 10.9381 175.921Z" fill="#69A1AC"/>
<path fill-rule="evenodd" clip-rule="evenodd" d="M85.2018 162.895C75.9392 163.522 69.9928 168.732 67.2248 176.02C65.7329 179.948 65.5619 183.982 64.7328 188.018C63.4857 194.091 60.8023 198.693 55.558 203.019C53.9336 204.359 52.7367 205.734 51.8858 207.206C50.1966 208.675 48.7262 210.338 47.6459 212.371C46.266 214.968 45.8755 218.083 47.4688 220.671C47.8972 221.367 48.9658 222.764 50.0734 223.399C45.9267 230.927 43.6468 239.173 43.9038 247.408C44.0591 252.379 44.3437 257.352 44.6758 262.317C44.7652 263.65 45.2745 265.852 46.0394 263.616C46.7394 261.571 45.8616 258.361 45.7803 256.224C45.3851 245.817 45.0472 236.354 50.0727 226.63C50.5997 225.611 51.1584 224.6 51.7404 223.597C51.7745 223.58 51.8062 223.56 51.8383 223.54C51.8605 223.554 51.8806 223.57 51.9028 223.584C51.94 223.528 51.9909 223.461 52.0503 223.385C52.2172 223.239 52.3629 223.053 52.5015 222.846C52.9472 222.319 53.4517 221.701 53.4544 221.362C53.4544 221.359 53.4527 221.355 53.4527 221.353C56.5638 217.023 60.1271 212.932 63.7669 208.922C63.7396 208.951 67.7149 204.336 67.1002 206.888C66.8039 208.118 63.8799 210.46 62.6989 211.762C60.0865 214.66 57.0188 218.332 54.4695 221.882C54.1265 222.051 53.6418 222.876 53.2913 223.49C53.0978 223.802 52.9172 224.116 52.7397 224.389C61.7726 226.933 68.7993 221.808 73.5906 215.848C73.5964 215.841 73.6016 215.833 73.607 215.826C75.0651 214.179 76.5587 212.544 78.4247 211.242C81.5378 209.069 84.8718 208.686 88.5423 207.617C98.552 204.701 102.808 193.642 104.159 185.436C105.684 176.178 98.225 161.982 85.2018 162.895Z" fill="#89C5CC"/>
<path fill-rule="evenodd" clip-rule="evenodd" d="M66.9051 136.97C57.3985 145.405 52.8057 157.104 49.169 168.103C45.1072 180.387 42.4244 192.861 42.3214 205.632C42.2539 214.023 41.9861 222.467 42.5607 230.848C42.7645 233.825 43.1125 236.807 43.666 239.751C43.7115 239.993 44.9497 246.568 46.1345 245.036C46.8082 244.165 44.8653 238.216 44.7184 237.225C43.8925 231.644 43.7006 226.022 43.7409 220.4C43.8071 211.145 43.487 201.937 44.5874 192.716C44.7515 191.339 44.8813 189.893 45.2649 188.546C45.6722 187.114 45.1534 187.739 46.4802 187.172C47.7693 186.621 49.3623 186.7 50.6998 186.008C56.0053 183.266 58.7193 176.221 60.8316 171.598C63.2477 166.313 64.7161 160.676 65.8889 155.113C66.75 151.026 67.3657 146.964 67.7142 142.824C67.824 141.52 67.8305 140.155 68.1313 138.872C68.2123 138.526 68.6188 137.914 68.6041 137.608C68.5728 136.959 68.1136 136.578 68.076 136.033C67.6781 136.338 67.2874 136.651 66.9051 136.97Z" fill="#89C5CC"/>
<path fill-rule="evenodd" clip-rule="evenodd" d="M15.0688 249.351C15.0688 263.3 28.3333 274.608 44.6959 274.608C61.0584 274.608 74.3229 263.3 74.3229 249.351" fill="#89C5CC"/>
<path fill-rule="evenodd" clip-rule="evenodd" d="M64.9995 227.237C72.332 226.776 80.5207 231.819 84.0576 237.067C86.9089 241.298 86.4286 246.854 84.6674 251.35C83.4881 254.359 80.9142 258.65 76.622 258.692C71.2518 258.744 70.9928 253.086 70.889 249.778C70.751 245.381 70.0991 241.55 66.0344 238.552C65.5325 238.182 65.0059 237.836 64.4793 237.489C64.0119 237.182 63.5446 236.875 63.0946 236.551C63.0227 236.499 62.9504 236.447 62.8779 236.395C61.4406 235.365 59.931 234.284 59.7472 232.586C59.4808 230.126 61.1097 229.683 63.5968 230.14C63.677 230.155 63.895 230.226 64.1914 230.321C65.4615 230.732 68.1719 231.608 67.6592 230.561C67.4661 230.166 66.761 229.854 65.871 229.619C63.5681 229.406 60.8217 229.158 60.0318 229.306C51.5108 230.9 48.1932 240.962 47.3121 247.355C47.217 248.045 47.1401 248.738 47.0731 249.431H45.5076C45.6162 247.757 45.7597 246.085 46.088 244.429C47.3439 238.097 51.2706 228.796 59.8829 227.768C60.2006 227.73 61.3693 227.723 62.7851 227.794C63.456 227.474 64.2076 227.281 64.9995 227.237Z" fill="#69A1AC"/>
</g>
<path fill-rule="evenodd" clip-rule="evenodd" d="M174.019 157.479C170.824 159.406 167.685 160.337 166.212 159.957C162.517 159.004 162.177 145.478 165.036 140.146C167.895 134.813 182.591 132.489 183.332 143.054C183.589 146.721 182.051 149.993 179.777 152.664L183.853 171.675H172.013L174.019 157.479Z" fill="#B28B67"/>
<path fill-rule="evenodd" clip-rule="evenodd" d="M163.918 142.54C164.035 141.849 164.322 141.081 164.553 140.427C164.852 139.584 165.303 138.824 165.799 138.108C166.734 136.759 167.856 135.541 169.094 134.531C171.356 132.684 174.235 131.619 177.066 131.965C178.496 132.14 179.884 132.686 181.065 133.594C182.132 134.414 183.158 135.622 184.54 135.709C186.044 135.804 187.422 134.476 188.628 133.655C189.987 132.731 191.434 132.057 193.023 131.795C195.685 131.356 198.186 132.256 200.02 134.442C201.972 136.768 203.392 140.178 202.109 143.26C201.871 143.833 201.565 144.316 201.125 144.716C200.721 145.083 200.105 145.474 199.941 146.06C199.767 146.683 200.287 147.488 200.488 148.05C200.776 148.856 201.013 149.702 200.929 150.578C200.791 152.017 199.887 153.39 198.933 154.335C197.962 155.297 196.768 155.849 195.492 156.104C194.64 156.273 193.769 156.367 192.903 156.303C192.473 156.272 192.093 156.152 191.677 156.057C191.272 155.965 191.045 156.072 190.702 156.295C189.105 157.327 187.389 157.727 185.545 157.573C183.99 157.444 182.197 157.066 180.927 156C179.518 154.815 179.546 153.181 179.878 151.436C179.526 151.61 178.554 151.718 179.135 151.023C179.365 150.748 179.8 150.636 180.095 150.475C180.439 150.286 180.788 150.043 181.055 149.735C182.133 148.495 181.044 145.969 179.689 145.553C177.676 144.935 177.226 147.784 175.789 148.521C174.962 148.944 174.098 148.365 173.479 147.774C172.65 146.982 172.085 145.932 171.597 144.864C171.195 143.985 170.821 143.093 170.411 142.218C170.22 141.809 169.558 140.654 169.89 140.192C168.448 139.904 166.842 140.504 165.601 141.29C165.087 141.615 164.696 141.973 164.422 142.547C164.364 142.67 164.236 143.036 164.076 143.051C163.777 143.079 163.889 142.714 163.918 142.54Z" fill="#191847"/>
<path fill-rule="evenodd" clip-rule="evenodd" d="M204.853 233.879C213.69 233.879 220.853 241.042 220.853 249.879V279.095C220.853 287.931 213.69 295.095 204.853 295.095H164.333C155.497 295.095 148.333 287.931 148.333 279.095V249.879C148.333 241.042 155.497 233.879 164.333 233.879H204.853ZM203.04 247.702C205.249 247.702 207.04 249.493 207.04 251.702V277.272C207.04 279.481 205.249 281.272 203.04 281.272H166.147C163.938 281.272 162.147 279.481 162.147 277.272V251.702C162.147 249.493 163.938 247.702 166.147 247.702H203.04Z" fill="#C5CFD6"/>
<path fill-rule="evenodd" clip-rule="evenodd" d="M99.4149 292.627C109.141 280.741 115.723 271.929 119.158 266.192C125.041 256.368 129.856 247.627 131.376 244.288C134.999 236.325 123.034 232.596 120.326 236.31C116.228 241.932 107.474 259.621 94.0667 289.377L99.4149 292.627Z" fill="#B28B67"/>
<path fill-rule="evenodd" clip-rule="evenodd" d="M119.346 289.171L137.448 243.573C141.319 235.261 122.623 229.797 119.778 233.665C113.318 242.448 97.9646 277.092 96.04 279.709L119.346 289.171Z" fill="#2F3676"/>
<path fill-rule="evenodd" clip-rule="evenodd" d="M167.557 280.025C164.031 274.878 151.206 257.562 144.22 250.398C142.213 248.339 140.254 246.363 138.402 244.521C132.895 239.048 121.928 248.249 127.425 253.234C141.113 265.65 161.085 282.41 162.754 283.905C165.092 285.999 169.773 283.26 167.557 280.025Z" fill="#B28B67"/>
<path fill-rule="evenodd" clip-rule="evenodd" d="M164.596 278.779C165.344 277.878 166.683 277.639 167.548 278.429C168.179 279.006 168.816 279.655 169.103 280.153C169.77 281.31 170.665 283.751 170.665 283.751C169.325 284.525 146.568 297.673 146.568 297.673C146.568 297.673 143.836 295.108 145.717 293.691C147.598 292.274 148.821 291.301 148.821 291.301L156.832 280.256C157.163 279.8 157.805 279.707 158.251 280.051L159.567 281.064C159.567 281.064 161.945 280.856 163.116 280.18C163.584 279.909 164.12 279.351 164.596 278.779Z" fill="#E4E4E4"/>
<path fill-rule="evenodd" clip-rule="evenodd" d="M101.209 290.715C102.307 290.308 103.587 290.772 103.941 291.889C104.2 292.705 104.427 293.585 104.427 294.16C104.427 295.495 103.982 298.057 103.982 298.057C102.434 298.057 76.1571 298.057 76.1571 298.057C76.1571 298.057 75.0725 294.469 77.4093 294.183C79.7461 293.897 81.2918 293.666 81.2918 293.666L93.7481 288.109C94.2628 287.879 94.8654 288.12 95.0801 288.641L95.7128 290.177C95.7128 290.177 97.8761 291.187 99.2285 291.187C99.7689 291.187 100.512 290.972 101.209 290.715Z" fill="#E4E4E4"/>
<path fill-rule="evenodd" clip-rule="evenodd" d="M143.961 245.85C143.961 245.85 166.529 242.171 174.194 240.819C188.758 238.249 193.006 230.406 190.494 213.293L163.659 213.293C158.332 214.833 119.144 232.334 119.144 232.334C114.444 234.669 115.319 241.554 116.178 243.822C116.231 243.961 139.951 284.586 139.951 284.586L161.903 270.591L143.92 247.5C143.92 247.5 143.208 246.064 143.961 245.85Z" fill="#5C63AB"/>
<path fill-rule="evenodd" clip-rule="evenodd" d="M215.724 234.821C214.278 231.886 207.055 194.113 207.055 194.113L196.252 194.153C196.252 194.153 208.594 234.166 209.355 236.054C210.343 238.505 208.664 242.068 207.525 244.483C207.349 244.857 207.186 245.203 207.048 245.513C208.628 246.221 209.387 245.366 210.187 244.464C211.09 243.446 212.047 242.368 214.298 243.416C215.168 243.821 215.991 244.3 216.795 244.768C219.572 246.383 222.124 247.867 225.595 245.724C226.145 245.384 226.748 244.105 225.291 243.105C221.661 240.615 216.43 236.256 215.724 234.821ZM124.742 220.103L138.717 206.46L143.358 214.497L128.826 223.071C125.182 228.815 123.042 231.297 122.406 230.516C121.869 229.859 122.115 229.137 122.342 228.473C122.518 227.956 122.683 227.473 122.457 227.081C121.94 226.187 119.023 226.699 116.275 227.304C113.527 227.908 114.162 226.557 114.747 225.852C117.344 223.755 120.675 221.838 124.742 220.103Z" fill="#B28B67"/>
<path fill-rule="evenodd" clip-rule="evenodd" d="M174.137 163.446L169.871 162.714C163.151 186.486 128.623 202.689 126.504 211.576C125.726 214.835 128.07 216.482 126.86 217.475L132.404 221.537C133.343 220.44 135.347 222.446 139.532 221.043C143.716 219.64 174.137 191.594 174.137 163.446Z" fill="#4B90AF"/>
<path fill-rule="evenodd" clip-rule="evenodd" d="M179.703 158.625C181.906 158.471 183.818 160.132 183.972 162.336L184.033 163.207C192.061 169.39 211.959 187.864 217.144 222.256C217.689 225.869 216.704 227.804 215.917 229.35C215.378 230.407 214.932 231.283 215.132 232.389L207.876 234.394C207.876 233.577 206.961 232.956 205.781 232.154C204.065 230.988 201.789 229.442 200.947 226.359C200.149 223.436 198.98 219.786 197.584 215.726C197.453 221.103 196.433 226.049 194.213 230.145C188.675 240.365 156.666 229.157 153.322 218.732C151.538 213.168 154.07 208.498 157.419 202.32C161.696 194.43 167.306 184.082 166.955 166.275C166.935 166.153 166.921 166.029 166.912 165.903L166.747 163.541C166.593 161.338 168.255 159.426 170.458 159.272L179.703 158.625Z" fill="#4EAFDA"/>
<path fill-rule="evenodd" clip-rule="evenodd" d="M21.8833 59.4395C23.5666 54.6523 27.5193 50.9054 31.6224 47.4724C39.6099 40.789 43.9059 36.6567 46.7528 26.8802C48.4269 21.1304 50.1309 15.0374 55.441 10.8658C59.3074 7.828 65.962 5.2757 71.1327 7.45102C79.0875 11.4987 81.2236 19.8052 80.4215 27.2432C79.4272 36.462 74.3759 42.1463 64.6718 45.5419C59.204 47.4542 55.5693 49.9776 52.6012 54.3745C50.2269 57.8904 48.8426 62.293 45.8591 65.4803C41.3987 70.2448 35.8169 72.3628 28.9368 71.5714C35.3809 61.4635 42.9103 51.2607 51.9917 42.7503C52.8418 41.8947 57.8558 38.6199 56.8446 37.1618C55.7305 35.5562 50.5832 41.5873 50.6197 41.5508C47.9805 44.1334 45.5384 46.8779 43.1403 49.6486C43.1463 49.6513 43.1535 49.6528 43.1601 49.6556C40.6911 52.4988 38.2416 55.3838 35.8389 58.3051C34.8672 59.5407 33.9215 60.7922 33.016 62.075C31.6874 63.9574 29.5788 69.3 27.4045 70.4575C26.9393 70.705 26.5093 70.8433 26.1072 70.9004C24.6238 72.9711 23.1803 75.0584 21.8076 77.1703C18.2225 82.6862 15.1454 88.5102 13.7331 94.7376C13.321 96.5552 13.6127 103.354 12.1573 104.666C9.49637 107.066 10.2759 102.445 10.435 101.05C11.7567 89.4977 16.6214 79.6559 23.6848 69.9441C21.5149 67.5282 21.2015 61.3791 21.8833 59.4395Z" fill="#EFEFEF"/>
<path fill-rule="evenodd" clip-rule="evenodd" d="M113.019 65.0211C110.213 62.2034 103.47 61.7253 99.3457 61.9139C94.2423 62.1473 89.0005 63.2063 84.1453 64.487C76.1472 66.5963 68.3754 70.4456 61.3314 74.1713C60.4826 74.6203 50.0243 79.9819 50.9501 80.9229C51.8672 81.8551 62.1338 75.4863 64.4219 74.3886C69.3044 72.0455 73.7823 69.2745 79.1644 67.7273C84.7371 66.1248 90.6307 65.4904 96.4907 65.5341C97.2428 65.5398 99.696 65.0928 99.749 66.0414C99.8008 66.9691 95.7416 66.485 95.0257 66.4906C92.0694 66.5137 89.0948 66.751 86.1803 67.1877C80.7199 68.006 75.5864 69.6544 70.9097 72.1827C72.2145 74.7693 75.3428 75.962 78.6244 75.3147C81.4605 74.755 84.2253 73.375 87.0025 72.976C88.9152 72.7013 90.8304 72.8647 92.6851 73.3241C97.5775 74.5362 100.399 77.0194 105.778 75.2921C109.995 73.938 117.047 69.0733 113.019 65.0211Z" fill="#EFEFEF"/>
<path fill-rule="evenodd" clip-rule="evenodd" d="M125.082 19.6189C131.311 19.2316 138.267 23.4695 141.271 27.8797C143.693 31.4355 143.285 36.1047 141.789 39.8824C140.788 42.4115 138.601 46.0174 134.955 46.0525C130.393 46.0965 130.173 41.3415 130.085 38.5618C129.968 34.8662 129.414 31.6468 125.961 29.1278C125.535 28.8169 125.088 28.5259 124.64 28.2348C124.243 27.9765 123.846 27.7181 123.464 27.446C123.403 27.4025 123.341 27.359 123.28 27.3154C122.059 26.4499 120.777 25.5409 120.62 24.1144C120.394 22.047 121.778 21.675 123.891 22.059C123.959 22.0714 124.144 22.1306 124.396 22.2111C125.475 22.556 127.777 23.292 127.341 22.4122C127.177 22.0807 126.578 21.818 125.822 21.6211C123.866 21.4418 121.533 21.2336 120.862 21.358C113.624 22.6972 110.806 31.1532 110.057 36.5256C109.972 37.134 109.905 37.7444 109.846 38.3557H108.519C108.612 36.9199 108.733 35.4865 109.017 34.0668C110.084 28.7452 113.42 20.9291 120.736 20.0654C121.006 20.0332 121.998 20.0278 123.201 20.0873C123.771 19.8187 124.409 19.6562 125.082 19.6189Z" fill="#EFEFEF"/>
</svg>
