<svg width="22" height="23" viewBox="0 0 22 23" fill="none" xmlns="http://www.w3.org/2000/svg">
<path opacity="0.3" d="M1.41943 22.9914C1.41943 22.2023 2.05919 21.5625 2.84836 21.5625H19.1518C19.941 21.5625 20.5807 22.2023 20.5807 22.9914C20.5807 22.9962 20.5769 23 20.5722 23H1.42801C1.42327 23 1.41943 22.9962 1.41943 22.9914Z" fill="#187330"/>
<path fill-rule="evenodd" clip-rule="evenodd" d="M0.416752 10.1234C-0.138917 10.6862 -0.138917 11.5986 0.416752 12.1614C0.972422 12.7242 1.87334 12.7241 2.42901 12.1614L11 3.4808L19.571 12.1614C20.1267 12.7241 21.0276 12.7241 21.5833 12.1614C22.1389 11.5986 22.1389 10.6861 21.5833 10.1234L12.0656 0.484068C12.0471 0.462976 12.0278 0.442302 12.0079 0.422079C11.4522 -0.140693 10.5513 -0.140693 9.99562 0.42208L0.416752 10.1234Z" fill="#187330"/>
<path fill-rule="evenodd" clip-rule="evenodd" d="M2.83862 13.2224C2.83862 12.9594 2.94224 12.707 3.12704 12.5198L10.2883 5.26699C10.6799 4.87046 11.32 4.87046 11.7115 5.26699L18.8728 12.5198C19.0576 12.707 19.1612 12.9594 19.1612 13.2224V21.4369H2.83862V13.2224ZM9.22573 18.1244C9.22573 17.5721 9.67344 17.1244 10.2257 17.1244H11.7741C12.3264 17.1244 12.7741 17.5721 12.7741 18.1244V21.4369H9.22573V18.1244Z" fill="#187330"/>
</svg>
