<svg width="48" height="48" viewBox="0 0 48 48" fill="none" xmlns="http://www.w3.org/2000/svg">
<path opacity="0.3" fill-rule="evenodd" clip-rule="evenodd" d="M24 48C37.2548 48 48 37.2548 48 24C48 10.7452 37.2548 0 24 0C10.7452 0 0 10.7452 0 24C0 37.2548 10.7452 48 24 48Z" fill="#2867C5"/>
<path opacity="0.3" fill-rule="evenodd" clip-rule="evenodd" d="M23.2953 47.9897C10.3664 47.6169 0 37.019 0 23.9998C0 23.7781 0.00300791 23.557 0.00898516 23.3367C1.76621 23.5047 4.95032 23.8862 5.10034 25.1209C5.30798 26.829 5.10034 28.9641 6.55479 29.6046C8.00924 30.245 8.42484 27.0423 9.67133 27.8965C10.9178 28.7507 14.2423 29.573 14.2423 31.0831C14.2423 32.5929 13.6191 34.9424 14.2423 35.3695C14.8656 35.7966 17.3573 38.7856 17.3579 39.2127C17.3589 39.6398 18.2362 41.8114 17.9744 42.6416C17.7575 43.3298 16.6629 45.4669 15.6016 46.4387C18.0084 47.3653 20.5962 47.9086 23.2954 47.9893L23.2953 47.9897ZM14.0873 2.13632C17.1089 0.764171 20.4652 0 24 0C33.3639 0 41.4753 5.3626 45.4306 13.1842C45.5191 15.2643 45.5036 17.0436 45.963 17.6873C48.3019 20.9601 40.2654 23.2115 41.4862 28.1614C42.0239 30.3453 36.1408 29.6525 34.7039 31.6971C33.2662 33.7406 29.7532 32.3675 28.9387 31.9746C28.1242 31.5818 25.0044 32.8911 25.2771 30.6654C25.5482 28.439 27.4461 28.3083 29.4815 27.3919C31.516 26.4764 34.4505 23.4325 33.0085 23.0347C26.2195 21.1633 23.9034 14.6094 23.9034 14.6094C23.4961 14.5307 23.5984 9.97625 21.8357 9.84552C20.0713 9.71413 19.1213 10.3691 16.545 9.84552C13.9671 9.32195 14.5105 7.61983 14.1033 3.95349C14.0121 3.13108 14.0165 2.55246 14.0873 2.13632ZM47.9978 23.672C47.9993 23.7811 48 23.8904 48 23.9999C48 37.175 37.3836 47.8706 24.2387 47.9987C37.254 47.8674 47.8232 37.0357 47.9978 23.672Z" fill="#2867C5"/>
</svg>
