<svg width="28" height="23" viewBox="0 0 28 23" fill="none" xmlns="http://www.w3.org/2000/svg">
<path d="M12.4736 4.11352L8.376 1C8.376 1 2.73664 6.32113 1.24745 10.9633C1.08043 11.4839 0.786014 12.9776 1.24745 16.5676C1.57022 19.0788 2.89792 21.066 5.30276 21.7568C6.69049 22.1554 7.63502 22.0485 8.99064 21.5493C10.8524 20.8635 12.0421 19.9212 12.6785 18.0206C13.1155 16.7156 13.0987 15.8025 12.6785 14.4919C11.8624 11.9466 7.1467 10.5481 7.1467 10.5481L12.4736 4.11352Z" stroke="#438E56"/>
<path d="M26.4736 4.11352L22.376 1C22.376 1 16.7366 6.32113 15.2474 10.9633C15.0804 11.4839 14.786 12.9776 15.2474 16.5676C15.5702 19.0788 16.8979 21.066 19.3028 21.7568C20.6905 22.1554 21.635 22.0485 22.9906 21.5493C24.8524 20.8635 26.0421 19.9212 26.6785 18.0206C27.1155 16.7156 27.0987 15.8025 26.6785 14.4919C25.8624 11.9466 21.1467 10.5481 21.1467 10.5481L26.4736 4.11352Z" stroke="#438E56"/>
</svg>
