<svg width="32" height="32" viewBox="0 0 32 32" fill="none" xmlns="http://www.w3.org/2000/svg">
<rect opacity="0.1" width="32" height="32" rx="16" fill="#438E56"/>
<path fill-rule="evenodd" clip-rule="evenodd" d="M15.8813 17.9331L17.86 15.9544C18.4065 15.4079 18.542 14.573 18.1964 13.8818L18.0843 13.6575C17.7386 12.9663 17.8741 12.1314 18.4206 11.5849L20.874 9.13148C21.0493 8.95617 21.3335 8.95617 21.5088 9.13148C21.543 9.16559 21.5714 9.20498 21.5929 9.24814L22.5841 11.2304C23.3423 12.7468 23.0451 14.5783 21.8462 15.7771L16.4606 21.1627C15.1557 22.4676 13.2255 22.9233 11.4747 22.3397L9.30706 21.6172C9.07187 21.5388 8.94476 21.2846 9.02316 21.0494C9.04519 20.9833 9.08232 20.9232 9.1316 20.8739L11.5118 18.4937C12.0583 17.9472 12.8932 17.8117 13.5845 18.1573L13.8087 18.2694C14.5 18.6151 15.3348 18.4796 15.8813 17.9331Z" fill="#438E56"/>
</svg>
