<svg width="62" height="44" viewBox="0 0 62 44" fill="none" xmlns="http://www.w3.org/2000/svg">
<path fill-rule="evenodd" clip-rule="evenodd" d="M46.5 34.9062C46.4625 34.937 46.4254 34.9683 46.3886 35H46.5V34.9062ZM16.6095 35C16.5733 34.9689 16.5368 34.9381 16.5 34.9078V35H16.6095ZM22.2 24.5714V33.7857C20.3477 33.7857 19.2104 33.1945 18.8685 32.8806C17.9801 32.0696 17.0085 31.5042 16 31.1462V9.21429C16 4.13299 20.1714 0 25.3 0C30.4286 0 34.6 4.13299 34.6 9.21429V10.75C34.6 11.5985 33.9064 12.2857 33.05 12.2857H29.95C29.0936 12.2857 28.4 11.5985 28.4 10.75V9.21429C28.4 7.52116 27.0089 6.14286 25.3 6.14286C23.5911 6.14286 22.2 7.52116 22.2 9.21429V18.4286H40.8V9.21429C40.8 4.13299 44.9714 0 50.1 0C55.2286 0 59.4 4.13299 59.4 9.21429V10.75C59.4 11.5985 58.7064 12.2857 57.85 12.2857H54.75C53.8936 12.2857 53.2 11.5985 53.2 10.75V9.21429C53.2 7.52116 51.8089 6.14286 50.1 6.14286C48.3911 6.14286 47 7.52116 47 9.21429V31.1472C45.9915 31.5052 45.0199 32.0696 44.1315 32.8816C43.7896 33.1945 42.6522 33.7857 40.8 33.7857V24.5714H22.2Z" fill="#4979F4"/>
<path opacity="0.6" fill-rule="evenodd" clip-rule="evenodd" d="M58.9 37.0714H60.45C61.3064 37.0714 62 37.7587 62 38.6071V41.6786C62 42.5271 61.3064 43.2143 60.45 43.2143H58.9C55.1587 43.2143 51.8552 42.0452 49.6 40.1582C47.3447 42.0443 44.0413 43.2143 40.3 43.2143C36.5587 43.2143 33.2552 42.0452 31 40.1582C28.7448 42.0443 25.4413 43.2143 21.7 43.2143C17.9587 43.2143 14.6552 42.0452 12.4 40.1582C10.1447 42.0443 6.84131 43.2143 3.1 43.2143H1.55C0.693625 43.2143 0 42.5271 0 41.6786V38.6071C0 37.7587 0.693625 37.0714 1.55 37.0714H3.1C5.62262 37.0714 7.53687 36.2633 8.53178 35.3533C9.39397 34.5653 10.4363 34 11.6095 34H13.1886C14.3617 34 15.4041 34.5653 16.2663 35.3533C17.2631 36.2633 19.1774 37.0714 21.7 37.0714C24.2226 37.0714 26.1369 36.2633 27.1318 35.3533C27.994 34.5653 29.0363 34 30.2095 34H31.7886C32.9617 34 34.0041 34.5653 34.8663 35.3533C35.8631 36.2633 37.7774 37.0714 40.3 37.0714C42.8226 37.0714 44.7369 36.2633 45.7318 35.3533C46.594 34.5653 47.6363 34 48.8095 34H50.3886C51.5617 34 52.6041 34.5653 53.4663 35.3533C54.4631 36.2633 56.3774 37.0714 58.9 37.0714Z" fill="#4979F4"/>
</svg>
