<svg width="50" height="50" viewBox="0 0 50 50" fill="none" xmlns="http://www.w3.org/2000/svg">
<path opacity="0.3" fill-rule="evenodd" clip-rule="evenodd" d="M20.6169 26.7428L16.2851 31.0745C15.4877 31.872 15.4877 33.1649 16.2851 33.9624C17.0826 34.7599 18.3755 34.7599 19.173 33.9624L23.5048 29.6306L24.9487 31.0745C26.5436 32.6695 26.5436 35.2553 24.9487 36.8503L19.173 42.626C17.5781 44.2209 14.9922 44.2209 13.3973 42.626L7.62156 36.8503C6.02664 35.2553 6.02664 32.6695 7.62156 31.0745L13.3973 25.2988C14.9922 23.7039 17.5781 23.7039 19.173 25.2988L20.6169 26.7428Z" fill="#CB9406"/>
<path fill-rule="evenodd" clip-rule="evenodd" d="M29.2804 23.8549L33.6122 19.5231C34.4096 18.7256 34.4096 17.4327 33.6122 16.6353C32.8147 15.8378 31.5218 15.8378 30.7243 16.6353L26.3925 20.967L24.9486 19.5231C23.3537 17.9282 23.3537 15.3423 24.9486 13.7474L30.7243 7.97169C32.3192 6.37678 34.9051 6.37678 36.5 7.97169L42.2757 13.7474C43.8707 15.3423 43.8707 17.9282 42.2757 19.5231L36.5 25.2988C34.9051 26.8937 32.3192 26.8937 30.7243 25.2988L29.2804 23.8549Z" fill="#CB9406"/>
<path opacity="0.3" fill-rule="evenodd" clip-rule="evenodd" d="M8.32866 11.5667C7.93814 11.1762 7.93814 10.543 8.32866 10.1525L9.8023 8.67887C10.1928 8.28835 10.826 8.28835 11.2165 8.67887L15.578 13.0404C15.9685 13.4309 15.9685 14.0641 15.578 14.4546L14.1044 15.9282C13.7138 16.3187 13.0807 16.3187 12.6902 15.9282L8.32866 11.5667ZM17.4813 4.88788C17.4813 4.33559 17.929 3.88788 18.4813 3.88788H20.5653C21.1176 3.88788 21.5653 4.33559 21.5653 4.88788L21.5653 11.056C21.5653 11.6082 21.1176 12.056 20.5653 12.056L18.4813 12.056C17.929 12.056 17.4813 11.6082 17.4813 11.056L17.4813 4.88788ZM3.88786 18.4812C3.88786 17.9289 4.33558 17.4812 4.88786 17.4812H11.0559C11.6082 17.4812 12.0559 17.9289 12.0559 18.4812L12.0559 20.5652C12.0559 21.1175 11.6082 21.5652 11.0559 21.5652L4.88786 21.5652C4.33558 21.5652 3.88786 21.1175 3.88786 20.5652L3.88786 18.4812Z" fill="#CB9406"/>
<path opacity="0.3" fill-rule="evenodd" clip-rule="evenodd" d="M38.433 41.6714C38.8235 42.0619 39.4567 42.0619 39.8472 41.6714L41.3209 40.1977C41.7114 39.8072 41.7114 39.174 41.3209 38.7835L36.9594 34.422C36.5688 34.0315 35.9357 34.0315 35.5452 34.422L34.0715 35.8957C33.681 36.2862 33.681 36.9193 34.0715 37.3099L38.433 41.6714ZM45.112 32.5188C45.6643 32.5188 46.112 32.0711 46.112 31.5188L46.112 29.4347C46.112 28.8824 45.6643 28.4347 45.112 28.4347L38.9439 28.4347C38.3916 28.4347 37.9439 28.8825 37.9439 29.4347L37.9439 31.5188C37.9439 32.0711 38.3916 32.5188 38.9439 32.5188H45.112ZM31.5186 46.1121C32.0709 46.1121 32.5186 45.6644 32.5186 45.1121L32.5186 38.944C32.5186 38.3917 32.0709 37.944 31.5186 37.944L29.4345 37.944C28.8823 37.944 28.4345 38.3917 28.4345 38.944L28.4345 45.1121C28.4345 45.6644 28.8823 46.1121 29.4345 46.1121L31.5186 46.1121Z" fill="#CB9406"/>
</svg>
