<svg width="32" height="32" viewBox="0 0 32 32" fill="none" xmlns="http://www.w3.org/2000/svg">
<rect opacity="0.1" width="32" height="32" rx="16" fill="#438E56"/>
<path fill-rule="evenodd" clip-rule="evenodd" d="M11 11C9.89543 11 9 11.8954 9 13V19.1111C9 20.2157 9.89543 21.1111 11 21.1111H21C22.1046 21.1111 23 20.2157 23 19.1111V13C23 11.8954 22.1046 11 21 11H11ZM21.5692 12.6679C21.4165 12.3843 21.0627 12.2781 20.779 12.4309L16 15.0042L11.221 12.4309C10.9374 12.2781 10.5836 12.3843 10.4309 12.6679C10.2781 12.9516 10.3843 13.3054 10.6679 13.4581L15.7235 16.1803C15.8961 16.2733 16.1039 16.2733 16.2766 16.1803L21.3322 13.4581C21.6158 13.3054 21.7219 12.9516 21.5692 12.6679Z" fill="#438E56"/>
</svg>
