<svg width="77" height="18" viewBox="0 0 77 18" fill="none" xmlns="http://www.w3.org/2000/svg">
<g opacity="0.5" clip-path="url(#clip0)">
<path d="M5.19193 0.0244913C5.87765 -0.0122434 6.55112 0.0122449 7.23683 0L12.4532 13.9225C11.8164 13.9225 11.1674 13.9102 10.5307 13.9347C10.0287 12.5755 9.58785 11.2041 9.1103 9.8449H3.34296C2.87765 11.2041 2.41234 12.5633 1.93479 13.9225H-0.012146V13.9102C1.73887 9.28163 3.48989 4.65306 5.19193 0.0244913ZM3.9552 8.16735H8.5103C7.75112 6.1347 7.01642 4.10204 6.23275 2.06939C5.42459 4.07755 4.72663 6.1347 3.9552 8.16735ZM14.3634 0H16.1511V13.9225H14.3634C14.3634 9.28163 14.3756 4.64082 14.3634 0ZM29.4001 0H31.2001C31.1756 1.92245 31.2613 3.8449 31.1266 5.7551C31.7879 4.8 32.8776 4.13877 34.0409 4.0898C35.0695 4.04082 36.1838 4.34694 36.8817 5.14286C37.5919 5.93878 37.8368 7.04082 37.8368 8.08163V13.9225H36.0491V8.33878C36.0368 7.59184 35.8899 6.74694 35.3021 6.23265C34.6899 5.73061 33.796 5.6449 33.0491 5.84082C31.8981 6.19592 31.2368 7.42041 31.2123 8.58367C31.2001 10.3714 31.2123 12.1469 31.2123 13.9347H29.4246C29.3878 9.28163 29.4001 4.64082 29.4001 0ZM49.8613 0.318368H51.6613C51.6491 2.13061 51.7103 3.94286 51.5878 5.7551C52.1021 5.06939 52.8123 4.51837 53.645 4.27347C55.0776 3.80816 56.7307 4.21224 57.8205 5.25306C59.8654 7.12653 60.0001 10.6531 58.1511 12.7102C57.2327 13.7755 55.7878 14.3878 54.3797 14.1918C53.2654 14.0816 52.2613 13.4449 51.5878 12.5633V13.9102H49.8736C49.8613 9.37959 49.8613 4.84898 49.8613 0.318368ZM54.0246 5.79184C53.0695 5.97551 52.2736 6.69796 51.9307 7.60408C51.5634 8.57143 51.5511 9.67347 51.9062 10.6408C52.2246 11.5224 52.9593 12.2571 53.8776 12.4776C54.8817 12.7469 56.0205 12.4286 56.7062 11.6449C57.4287 10.849 57.6491 9.72245 57.5389 8.69388C57.4654 7.8 57.0736 6.89388 56.3511 6.33061C55.7021 5.81633 54.8327 5.63265 54.0246 5.79184ZM72.4899 1.48163H74.2776V4.39592H76.5429V6.02449H74.2776V10.898C74.2776 11.3388 74.3511 11.8286 74.7307 12.1102C75.245 12.4898 75.9429 12.3796 76.5429 12.3184V13.9347C75.5511 14.0571 74.4613 14.0571 73.6042 13.4694C72.845 12.9673 72.5021 12.0245 72.5021 11.1429C72.4899 9.44082 72.5021 7.73878 72.5021 6.02449H70.8246V4.39592H72.5021C72.4899 3.41633 72.4776 2.44898 72.4899 1.48163ZM22.5307 4.15102C24.0246 3.85714 25.6042 4.48163 26.5715 5.63265C28.4327 7.75102 28.2246 11.3755 26.045 13.2C24.6981 14.3878 22.5674 14.5714 21.0613 13.5796C20.6205 13.3224 20.3144 12.9306 19.9715 12.5633C20.1062 14.3755 20.0327 16.1878 20.0572 17.9878H18.2572V4.38367H19.9715C19.9715 4.83673 19.9715 5.2898 19.9838 5.74286C20.5838 4.92245 21.5021 4.32245 22.5307 4.15102ZM22.4327 5.79184C21.5389 5.96326 20.7674 6.61225 20.4001 7.43265C19.9838 8.35102 19.947 9.41633 20.2164 10.3837C20.4736 11.3388 21.2083 12.1714 22.1756 12.4531C23.1797 12.7714 24.343 12.4776 25.0654 11.7061C25.8246 10.9102 26.0572 9.74694 25.947 8.68163C25.8613 7.72653 25.4205 6.77143 24.6123 6.22041C23.9879 5.79184 23.1797 5.6449 22.4327 5.79184ZM41.2654 4.66531C42.294 4.06531 43.5552 3.97959 44.7062 4.2C45.6368 4.38367 46.5307 4.89796 47.0572 5.71837C47.5593 6.4898 47.743 7.42041 47.7552 8.32653V13.9225H46.0409C46.0409 13.4694 46.0409 13.0163 46.0287 12.5755C45.3919 13.4449 44.4368 14.1061 43.347 14.2163C42.4532 14.2898 41.4981 14.1429 40.7266 13.6408C39.1348 12.6612 38.8776 10.0776 40.3103 8.84082C40.9715 8.25306 41.8532 7.95918 42.7225 7.84898C43.8368 7.71429 45.0246 7.81224 46.0409 8.32653C46.0654 7.67755 45.9674 6.97959 45.5266 6.47755C44.8287 5.65714 43.5797 5.52245 42.6001 5.86531C42.0001 6.07347 41.5838 6.58776 41.2654 7.11429C40.7144 6.91837 40.1634 6.74694 39.6123 6.53877C39.9797 5.77959 40.5185 5.08163 41.2654 4.66531ZM42.9062 9.37959C42.5144 9.45306 42.1103 9.6 41.8042 9.86939C41.1552 10.3959 41.0327 11.498 41.645 12.098C42.1593 12.5755 42.9307 12.6612 43.6042 12.5755C44.8654 12.3306 46.0164 11.1429 45.9307 9.82041C45.0368 9.29388 43.9225 9.2449 42.9062 9.37959ZM64.3348 4.23674C66.0001 3.82041 67.9593 4.27347 69.0613 5.6449C69.9429 6.71021 70.2491 8.14286 70.1756 9.4898H62.7062C62.7552 10.3592 63.0613 11.2531 63.7225 11.8531C64.7389 12.8082 66.4531 12.8204 67.5307 11.951C67.9225 11.6449 68.2042 11.2286 68.4123 10.7878C68.9511 10.9959 69.4899 11.2408 70.0164 11.4612C69.6246 12.3184 69.0001 13.0898 68.1797 13.5673C67.0899 14.2163 65.7429 14.3755 64.5185 14.1061C63.3674 13.8612 62.3266 13.1265 61.6899 12.1347C60.6491 10.5306 60.5756 8.38776 61.4083 6.68572C61.9838 5.49796 63.0613 4.5551 64.3348 4.23674ZM64.0654 6.14694C63.4164 6.56327 63.0123 7.27347 62.8164 8.00816H68.2899C68.1919 7.15102 67.6531 6.3551 66.8572 6.01225C65.9756 5.62041 64.8858 5.62041 64.0654 6.14694Z" fill="black"/>
</g>
<defs>
<clipPath id="clip0">
<rect width="76.5306" height="18" fill="white"/>
</clipPath>
</defs>
</svg>
