<svg width="181" height="14" viewBox="0 0 181 14" fill="none" xmlns="http://www.w3.org/2000/svg">
<g opacity="0.5">
<path fill-rule="evenodd" clip-rule="evenodd" d="M28.321 10.0469V3.95216C28.321 2.00712 29.6854 0.843872 31.5672 0.843872H47.9201C49.8018 0.843872 51.1662 2.00712 51.1662 3.95216V10.0469C51.1662 11.9929 49.8018 13.1543 47.9201 13.1543H31.5672C29.6854 13.1543 28.321 11.9929 28.321 10.0469ZM2.66161 0.844816H22.7095C24.626 0.844816 25.4552 2.68505 25.4552 4.38649V5.81033C25.4552 7.96309 24.1772 9.52668 21.9498 9.52668H5.45986V13.1543H2.66161V0.844816ZM54.188 0.844816H74.3213C75.7542 0.844816 77.0669 1.7994 77.0669 3.31011V6.50525C77.0669 7.84223 76.0303 8.55322 74.8565 8.86669C76.5486 9.66548 76.8942 11.4358 77.0669 13.1543H74.3213C74.2001 11.297 73.4057 9.52668 71.2826 9.52668H56.9853V13.1543H54.188V0.844816ZM102.397 0.844816V3.31011H83.7837C83.0409 3.31011 82.7301 3.84829 82.7301 4.56022C82.7301 5.2372 83.0757 5.7584 83.7837 5.7584H98.9619C101.448 5.7584 102.795 6.95659 102.795 9.50874C102.795 11.6445 101.656 13.1543 99.4464 13.1543H80.3657V10.689H98.9628C99.6013 10.689 99.8783 10.1338 99.8783 9.56067C99.8783 8.90256 99.7412 8.20669 98.9628 8.20669H83.1968C81.1592 8.20669 79.9854 6.62706 79.9854 4.66502C79.9854 2.21673 81.2972 0.845759 83.7846 0.845759H102.397V0.844816ZM127.469 0.844816V3.31011H109.097C108.666 3.31011 108.51 3.72649 108.51 4.09189V10.0828C108.51 10.4482 108.735 10.6899 109.097 10.6899H127.469V13.1552H109.097C107.094 13.1552 105.731 11.7663 105.731 9.7344V4.4573C105.731 2.1308 106.714 0.845759 109.097 0.845759H127.469V0.844816ZM130.473 0.844816H133.288V5.6366H149.538V0.844816H152.421V13.1543H149.538V8.10189H133.288V13.1543H130.473V0.844816ZM155.374 0.844816H178.339V3.31011H158.17V5.68947H178.339V8.13683H158.17V10.689H178.339V13.1543H155.374V0.844816Z" fill="black"/>
<path fill-rule="evenodd" clip-rule="evenodd" d="M32.7413 10.6889H46.9354C47.7984 10.6889 48.5064 10.3074 48.5064 9.31697V4.68193C48.5064 3.69242 47.8162 3.31003 46.9354 3.31003H32.7413C31.8605 3.31003 31.1525 3.69242 31.1525 4.68193V9.31697C31.1525 10.3074 31.8774 10.6889 32.7413 10.6889ZM5.45926 3.31003V7.06036H21.414C22.1051 7.06036 22.7089 6.78276 22.7089 6.00097V4.61301C22.7089 3.79723 22.2253 3.31097 21.414 3.31097H5.45926V3.31003ZM56.9847 3.31003V7.06036H73.6306C74.1827 7.06036 74.3207 6.59109 74.3207 6.12277V4.45533C74.3207 3.65654 74.0278 3.30908 73.2155 3.30908H56.9847V3.31003Z" fill="white"/>
</g>
</svg>
