<svg width="52" height="27" viewBox="0 0 52 27" fill="none" xmlns="http://www.w3.org/2000/svg">
<g opacity="0.5">
<path fill-rule="evenodd" clip-rule="evenodd" d="M33.2305 3.03799C33.0035 3.03799 32.7858 3.12747 32.6252 3.28675C32.4647 3.44603 32.3745 3.66206 32.3745 3.88732C32.3745 4.18293 32.5204 4.44214 32.7511 4.59435L29.848 10.776L30.4544 2.54439C30.6746 2.52589 30.879 2.42373 31.025 2.25924C31.171 2.09475 31.2473 1.88065 31.238 1.66167C31.2287 1.44268 31.1344 1.23574 30.9749 1.08405C30.8155 0.932373 30.6031 0.847682 30.3822 0.84767C30.1551 0.84767 29.9374 0.937152 29.7769 1.09643C29.6163 1.25571 29.5261 1.47174 29.5261 1.697C29.5261 2.06623 29.7635 2.37425 30.0956 2.49145L28.1033 10.5286L27.1177 1.66253C27.2988 1.6154 27.459 1.50998 27.5732 1.36281C27.6874 1.21564 27.7491 1.03504 27.7487 0.849325C27.7487 0.62407 27.6585 0.408041 27.4979 0.248762C27.3374 0.0894822 27.1197 0 26.8926 0C26.6656 0 26.4478 0.0894822 26.2873 0.248762C26.1267 0.408041 26.0365 0.62407 26.0365 0.849325C26.0365 1.27316 26.3517 1.6151 26.7611 1.6788L25.9668 10.3165L23.6582 2.51654C23.7964 2.44539 23.9122 2.33793 23.9931 2.2059C24.0739 2.07387 24.1166 1.92234 24.1165 1.76787C24.1165 1.59988 24.0663 1.43568 23.9722 1.296C23.8782 1.15633 23.7445 1.04747 23.5881 0.98319C23.4316 0.918907 23.2595 0.902087 23.0934 0.934859C22.9274 0.96763 22.7749 1.04852 22.6551 1.1673C22.5354 1.28608 22.4539 1.43742 22.4208 1.60217C22.3878 1.76692 22.4048 1.93769 22.4696 2.09289C22.5344 2.24808 22.6441 2.38073 22.7849 2.47405C22.9256 2.56738 23.0911 2.61719 23.2605 2.61719C23.2727 2.61719 23.286 2.61609 23.298 2.61554L24.293 10.7762L20.9402 4.8384C21.1057 4.7096 21.2177 4.52484 21.2547 4.31938C21.2916 4.11392 21.2511 3.90214 21.1407 3.72446C21.0303 3.54678 20.8579 3.41564 20.6562 3.35607C20.4546 3.2965 20.238 3.31267 20.0476 3.4015C19.8572 3.49033 19.7065 3.64559 19.6242 3.83765C19.5418 4.02971 19.5336 4.24513 19.6012 4.44279C19.6687 4.64045 19.8073 4.80652 19.9904 4.90929C20.1735 5.01206 20.3883 5.04435 20.5939 4.99999L23.4028 13.3545C24.0437 15.2975 29.7404 15.3328 30.5948 13.3545L33.1316 4.72589C33.1669 4.7303 33.1936 4.73637 33.23 4.73637C33.4543 4.73243 33.6681 4.64127 33.8254 4.4825C33.9827 4.32373 34.0708 4.11006 34.0709 3.88745C34.071 3.66485 33.983 3.45111 33.8258 3.29224C33.6686 3.13337 33.4549 3.04208 33.2305 3.03799ZM26.9285 14.248C25.4768 14.248 24.3 13.8139 24.3 13.2784C24.3 12.7429 25.4768 12.4914 26.9285 12.4914C28.3802 12.4914 29.4027 12.7429 29.4027 13.2784C29.4027 13.8139 28.3799 14.248 26.9285 14.248ZM31.0551 19.2237H31.9025C32.4167 19.2237 32.5968 19.3387 32.5968 19.7849V25.2812C32.5968 25.715 32.4167 25.8807 31.9025 25.8807H31.0551V26.7692H39.718V23.1201H38.8989C38.8989 24.9192 38.1807 25.8653 36.9716 25.8653H34.5408V22.9414H35.018C35.8023 22.9414 36.2504 23.2864 36.2504 23.9237V24.4344H37.1901V20.3764H36.2504V20.8231C36.2504 21.4493 35.777 21.831 35.018 21.831H34.5408V19.2237H36.8046C38.4642 19.2237 38.8088 20.1718 38.8989 21.5883H39.718V18.258H31.0551V19.2237ZM27.2442 25.8653H25.1913V19.8235C25.1913 19.377 25.3714 19.224 25.8859 19.224H26.6575V18.2795H21.8677V19.224H22.5367C23.0512 19.224 23.2313 19.377 23.2313 19.8235V25.2812C23.2313 25.715 23.0512 25.881 22.5367 25.881H21.8677V26.791H29.9858V23.0523H29.0603C29.0342 24.5193 29.0444 25.8653 27.2442 25.8653ZM15.7924 18.02C12.834 18.02 10.9924 20.2834 10.9821 22.4128C10.9687 25.169 12.8084 26.9043 15.7024 26.9043C18.7761 26.9043 20.5641 25.1946 20.5641 22.2722C20.5641 20.1067 18.6347 18.02 15.7924 18.02ZM15.7279 25.9003C14.1845 25.9003 13.2971 24.5309 13.2971 22.3488C13.2971 20.2178 14.2232 19.1175 15.8052 19.1175C17.3228 19.1175 18.2102 20.2435 18.2102 22.4382C18.2105 24.5819 17.3103 25.9003 15.7279 25.9003ZM51.0986 19.2237H51.9997V18.2677H47.6449V19.2237H48.2144C48.4284 19.2562 48.5705 19.4738 48.3573 19.6859L47.1468 21.0635L46.1854 19.8977C45.9714 19.6506 46.0073 19.2262 46.3989 19.2262L46.8386 19.2234V18.2674H41.8765V19.2234C43.1228 19.2587 43.4341 19.4029 43.8841 19.9771L45.9003 22.4056L43.1584 25.2669C42.6697 25.8156 42.6231 25.8647 41.8768 25.8647V26.7783H46.2207V25.8647H45.1812C44.873 25.8647 44.8082 25.6427 44.8082 25.4773C44.8082 25.3113 45.027 25.1199 45.117 25.0049L46.6479 23.2861L48.1794 25.0945C48.2564 25.1966 48.3845 25.3116 48.3845 25.4392C48.3845 25.6052 48.2433 25.865 47.9476 25.865H47.0865V26.7786H52V25.865C51.2237 25.865 51.1542 25.8286 50.4577 24.9848L47.8942 21.9821L49.6389 20.1097C50.2815 19.4336 50.533 19.2237 51.0986 19.2237ZM8.93919 24.3334V24.7705C8.93919 25.2936 8.63123 25.5614 8.37413 25.5614C7.9625 25.5614 7.93693 25.0639 7.91108 24.7705V24.4173C7.91108 23.2514 7.37715 22.792 6.70064 22.4387C7.96111 22.1456 8.79744 21.3986 8.79744 20.3648C8.79744 19.0249 7.87133 18.2591 6.22536 18.2591H0V19.224H0.843C1.35747 19.224 1.53758 19.342 1.53758 19.7885V25.2658C1.53758 25.6995 1.35747 25.8653 0.843 25.8653H0V26.7703H4.84899V25.8653H4.17998C3.66551 25.8653 3.4854 25.6995 3.4854 25.2658V22.8273H4.35036C5.27646 22.8273 5.95492 23.341 6.00634 24.3108L6.08361 25.4307C6.13503 26.4515 6.82961 27 8.05144 27C9.35054 27 9.65573 26.3749 9.65573 25.0477V24.3332H8.93919V24.3334ZM4.99157 21.7196H3.48651V19.2165H4.82397C6.11029 19.2165 6.57306 19.6398 6.57306 20.469C6.57334 21.3239 6.07193 21.7196 4.99157 21.7196Z" fill="black"/>
</g>
</svg>
