<svg width="100" height="35" viewBox="0 0 100 35" fill="none" xmlns="http://www.w3.org/2000/svg">
<path d="M34.1 17.24C33.78 16.6533 33.34 16.2067 32.78 15.9C32.22 15.5933 31.5667 15.44 30.82 15.44C29.9933 15.44 29.26 15.6267 28.62 16C27.98 16.3733 27.48 16.9067 27.12 17.6C26.76 18.2933 26.58 19.0933 26.58 20C26.58 20.9333 26.76 21.7467 27.12 22.44C27.4933 23.1333 28.0067 23.6667 28.66 24.04C29.3133 24.4133 30.0733 24.6 30.94 24.6C32.0067 24.6 32.88 24.32 33.56 23.76C34.24 23.1867 34.6867 22.3933 34.9 21.38H30.1V19.24H37.66V21.68C37.4733 22.6533 37.0733 23.5533 36.46 24.38C35.8467 25.2067 35.0533 25.8733 34.08 26.38C33.12 26.8733 32.04 27.12 30.84 27.12C29.4933 27.12 28.2733 26.82 27.18 26.22C26.1 25.6067 25.2467 24.76 24.62 23.68C24.0067 22.6 23.7 21.3733 23.7 20C23.7 18.6267 24.0067 17.4 24.62 16.32C25.2467 15.2267 26.1 14.38 27.18 13.78C28.2733 13.1667 29.4867 12.86 30.82 12.86C32.3933 12.86 33.76 13.2467 34.92 14.02C36.08 14.78 36.88 15.8533 37.32 17.24H34.1ZM39.0116 21.42C39.0116 20.3 39.2316 19.3067 39.6716 18.44C40.1249 17.5733 40.7316 16.9067 41.4916 16.44C42.2649 15.9733 43.1249 15.74 44.0716 15.74C44.8982 15.74 45.6182 15.9067 46.2316 16.24C46.8582 16.5733 47.3582 16.9933 47.7316 17.5V15.92H50.5516V27H47.7316V25.38C47.3716 25.9 46.8716 26.3333 46.2316 26.68C45.6049 27.0133 44.8782 27.18 44.0516 27.18C43.1182 27.18 42.2649 26.94 41.4916 26.46C40.7316 25.98 40.1249 25.3067 39.6716 24.44C39.2316 23.56 39.0116 22.5533 39.0116 21.42ZM47.7316 21.46C47.7316 20.78 47.5982 20.2 47.3316 19.72C47.0649 19.2267 46.7049 18.8533 46.2516 18.6C45.7982 18.3333 45.3116 18.2 44.7916 18.2C44.2716 18.2 43.7916 18.3267 43.3516 18.58C42.9116 18.8333 42.5516 19.2067 42.2716 19.7C42.0049 20.18 41.8716 20.7533 41.8716 21.42C41.8716 22.0867 42.0049 22.6733 42.2716 23.18C42.5516 23.6733 42.9116 24.0533 43.3516 24.32C43.8049 24.5867 44.2849 24.72 44.7916 24.72C45.3116 24.72 45.7982 24.5933 46.2516 24.34C46.7049 24.0733 47.0649 23.7 47.3316 23.22C47.5982 22.7267 47.7316 22.14 47.7316 21.46ZM56.0863 17.64C56.4463 17.0533 56.9129 16.5933 57.4863 16.26C58.0729 15.9267 58.7396 15.76 59.4863 15.76V18.7H58.7463C57.8663 18.7 57.1996 18.9067 56.7463 19.32C56.3063 19.7333 56.0863 20.4533 56.0863 21.48V27H53.2863V15.92H56.0863V17.64ZM60.6522 21.42C60.6522 20.3 60.8722 19.3067 61.3122 18.44C61.7655 17.5733 62.3789 16.9067 63.1522 16.44C63.9255 15.9733 64.7855 15.74 65.7322 15.74C66.4522 15.74 67.1389 15.9 67.7922 16.22C68.4455 16.5267 68.9655 16.94 69.3522 17.46V12.2H72.1922V27H69.3522V25.36C69.0055 25.9067 68.5189 26.3467 67.8922 26.68C67.2655 27.0133 66.5389 27.18 65.7122 27.18C64.7789 27.18 63.9255 26.94 63.1522 26.46C62.3789 25.98 61.7655 25.3067 61.3122 24.44C60.8722 23.56 60.6522 22.5533 60.6522 21.42ZM69.3722 21.46C69.3722 20.78 69.2389 20.2 68.9722 19.72C68.7055 19.2267 68.3455 18.8533 67.8922 18.6C67.4389 18.3333 66.9522 18.2 66.4322 18.2C65.9122 18.2 65.4322 18.3267 64.9922 18.58C64.5522 18.8333 64.1922 19.2067 63.9122 19.7C63.6455 20.18 63.5122 20.7533 63.5122 21.42C63.5122 22.0867 63.6455 22.6733 63.9122 23.18C64.1922 23.6733 64.5522 24.0533 64.9922 24.32C65.4455 24.5867 65.9255 24.72 66.4322 24.72C66.9522 24.72 67.4389 24.5933 67.8922 24.34C68.3455 24.0733 68.7055 23.7 68.9722 23.22C69.2389 22.7267 69.3722 22.14 69.3722 21.46ZM85.2269 21.22C85.2269 21.62 85.2002 21.98 85.1469 22.3H77.0469C77.1135 23.1 77.3935 23.7267 77.8869 24.18C78.3802 24.6333 78.9869 24.86 79.7069 24.86C80.7469 24.86 81.4869 24.4133 81.9269 23.52H84.9469C84.6269 24.5867 84.0135 25.4667 83.1069 26.16C82.2002 26.84 81.0869 27.18 79.7669 27.18C78.7002 27.18 77.7402 26.9467 76.8869 26.48C76.0469 26 75.3869 25.3267 74.9069 24.46C74.4402 23.5933 74.2069 22.5933 74.2069 21.46C74.2069 20.3133 74.4402 19.3067 74.9069 18.44C75.3735 17.5733 76.0269 16.9067 76.8669 16.44C77.7069 15.9733 78.6735 15.74 79.7669 15.74C80.8202 15.74 81.7602 15.9667 82.5869 16.42C83.4269 16.8733 84.0735 17.52 84.5269 18.36C84.9935 19.1867 85.2269 20.14 85.2269 21.22ZM82.3269 20.42C82.3135 19.7 82.0535 19.1267 81.5469 18.7C81.0402 18.26 80.4202 18.04 79.6869 18.04C78.9935 18.04 78.4069 18.2533 77.9269 18.68C77.4602 19.0933 77.1735 19.6733 77.0669 20.42H82.3269ZM93.4106 15.76C94.7306 15.76 95.7973 16.18 96.6106 17.02C97.424 17.8467 97.8306 19.0067 97.8306 20.5V27H95.0306V20.88C95.0306 20 94.8106 19.3267 94.3706 18.86C93.9306 18.38 93.3306 18.14 92.5706 18.14C91.7973 18.14 91.184 18.38 90.7306 18.86C90.2906 19.3267 90.0706 20 90.0706 20.88V27H87.2706V15.92H90.0706V17.3C90.444 16.82 90.9173 16.4467 91.4906 16.18C92.0773 15.9 92.7173 15.76 93.4106 15.76Z" fill="#165727"/>
<path opacity="0.3" fill-rule="evenodd" clip-rule="evenodd" d="M3.11186 1.80289C3.11186 1.80289 15.6327 8.79112 12.1263 17.4164C3.16363 15.9902 3.11186 1.80289 3.11186 1.80289Z" fill="#438E56"/>
<path opacity="0.3" fill-rule="evenodd" clip-rule="evenodd" d="M19.468 1.80289C19.468 1.80289 6.9471 8.79112 10.4535 17.4164C19.4162 15.9902 19.468 1.80289 19.468 1.80289Z" fill="#438E56"/>
<path opacity="0.3" fill-rule="evenodd" clip-rule="evenodd" d="M11.5061 1C11.5061 1 4.36 13.2927 11.5061 19C18.36 13.2927 11.5061 1 11.5061 1Z" fill="#438E56"/>
<path d="M4 16C4 15.4477 4.44772 15 5 15H18C18.5523 15 19 15.4477 19 16V25C19 26.1046 18.1046 27 17 27H6C4.89543 27 4 26.1046 4 25V16Z" fill="#438E56"/>
</svg>
