<svg width="63" height="23" viewBox="0 0 63 23" fill="none" xmlns="http://www.w3.org/2000/svg">
<g opacity="0.5">
<path fill-rule="evenodd" clip-rule="evenodd" d="M10.2621 22.8854C10.2467 22.8008 10.2312 22.7169 10.2187 22.6326C10.2101 22.4734 10.2031 22.3142 10.1975 22.1549C9.78701 22.1549 9.18795 21.8513 8.88892 21.7162C7.79923 21.004 7.33319 20.2735 7.13282 19.0655V18.876V18.6685V18.5006C7.33319 16.8893 8.52491 15.663 10.1759 15.4105H10.219V15.2243H9.36137C9.29335 15.1348 9.25328 15.0168 9.25328 14.9328V14.7226C9.28998 14.5479 9.28998 14.5479 9.36137 14.4095C9.63278 14.4007 9.90419 14.3947 10.1759 14.3892H10.219C10.2039 13.2321 10.1884 12.0779 10.1759 10.9237C7.49684 13.0065 7.49684 13.0065 7.45374 13.0724C7.97232 13.6885 8.18514 13.7724 7.39211 14.2206C7.03079 14.1964 7.02136 13.7819 6.76847 13.616C6.72537 13.637 6.68193 13.6583 6.64186 13.6793C6.90755 14.2564 7.03079 14.6348 7.13282 15.2873V15.8283C7.02776 16.525 6.95368 16.7447 6.61425 17.3756C6.0401 18.1274 5.03999 18.8967 4.0493 18.8967C3.99191 18.8882 3.93431 18.8812 3.87655 18.8757H3.62029C3.56352 18.881 3.50692 18.888 3.45057 18.8967C2.67877 18.8967 1.80223 18.3645 1.24392 17.9592C1.04928 18.0976 0.854983 18.2353 0.663714 18.3737C0.283872 18.2419 0 17.9471 0 17.5622C0.135706 17.4628 0.512518 17.2438 0.546529 17.0907C0.249861 16.4772 0.132676 16.1434 0.0431027 15.5151V15.0138C0.283872 13.2675 1.38905 12.0897 3.23439 11.9238H3.62029C4.53993 12.0051 5.19118 12.3209 5.95659 12.8858C6.03977 12.8019 6.03977 12.8019 6.03977 12.7173C5.37302 11.948 5.47169 12.0717 6.21285 11.5906C6.33004 11.7346 6.5799 12.1612 6.79002 12.1979C9.81159 9.84136 9.81159 9.84136 9.85503 9.77512C6.91967 7.43695 6.91967 7.43695 6.81157 7.39498C6.68193 7.5422 6.55532 7.68942 6.4287 7.83697C6.86377 8.21863 6.86377 8.21863 6.96243 8.25175C6.9163 8.43209 6.67553 8.70555 6.49033 8.79572C6.06166 8.43832 6.06166 8.43832 5.95659 8.3993C5.83907 8.53144 5.59561 8.72391 5.59561 8.90097L6.08321 9.29477C6.08321 9.43313 5.77442 9.78135 5.63534 9.81775C5.16323 9.44199 4.69449 9.06623 4.22508 8.69374V8.6003C4.71604 8.33012 5.20667 8.05961 5.69764 7.79205C5.67609 7.57302 5.41983 7.47957 5.24978 7.47957C4.78406 7.72287 4.32071 7.96616 3.85803 8.21011C3.90113 7.93042 4.185 6.87855 4.32711 6.68641C4.22205 6.56017 4.22205 6.56017 3.9412 6.34672C3.70044 6.77658 3.53038 7.48285 3.38558 7.98157C2.93806 7.87337 2.16928 7.18808 1.8423 6.81265L2.25919 6.29852C2.45652 6.44574 2.6296 6.61427 2.89192 6.70739C3.01517 6.53886 3.18489 6.38278 3.18489 6.17851C3.03176 6.05608 2.87843 5.93388 2.7249 5.81193C2.7249 5.61651 3.00574 5.39125 3.12932 5.24665C3.31453 5.39092 3.49974 5.53847 3.68461 5.68537C3.80819 5.54405 4.05805 5.32797 4.05805 5.15058C3.66003 4.84728 3.26469 4.54333 2.8697 4.24298C2.95624 3.89116 3.11047 3.5095 3.51152 3.43146C5.73064 5.16238 7.95279 6.89364 10.1753 8.62784C10.1877 7.45892 10.2032 6.28967 10.2184 5.12074H9.57655C9.56106 5.34895 9.54557 5.57782 9.53344 5.80898H8.84818V5.14205C8.63233 5.13287 8.41614 5.12697 8.20298 5.12107C8.18783 5.34928 8.17234 5.57815 8.16022 5.80931H7.51806V3.91018C8.07368 4.13248 8.63233 4.35512 9.19098 4.58038C9.20344 4.40594 9.21556 4.23183 9.23105 4.05772H9.19098C7.86086 3.53474 7.86086 3.53474 7.66925 3.43244C7.70932 3.30948 8.97143 2.88847 9.19098 2.80421H9.23105V2.2845H9.19098C7.6046 2.90946 7.6046 2.90946 7.51806 2.90946V1.01033H8.16022C8.17234 1.23854 8.18817 1.46707 8.20298 1.69856C8.41614 1.68938 8.63233 1.68381 8.84818 1.67758V1.01033H9.53344C9.54557 1.23854 9.56106 1.46707 9.57655 1.69856H10.1753C10.1877 1.17558 10.2032 0.652927 10.2184 0.132895C10.4652 -0.0533458 10.9777 -0.041542 11.2464 0.15388C11.2589 2.99077 11.2744 5.83095 11.2899 8.67112C13.5087 6.91593 15.7281 5.16369 17.9503 3.41145C18.3052 3.61573 18.5796 3.77508 18.6355 4.24397C18.2371 4.54497 17.8398 4.8475 17.4438 5.15156C17.4286 5.32567 17.6879 5.54798 17.8206 5.70733C18.0115 5.55716 18.2031 5.40994 18.3944 5.26272C19.015 6.08932 18.7002 5.50634 18.2493 6.22737C18.3668 6.37459 18.4837 6.52476 18.6012 6.67526C18.8945 6.67526 18.9931 6.28147 19.2774 6.32639L19.6198 6.8133C19.376 7.01135 18.3358 7.96714 18.1011 7.99141C17.9375 7.43564 17.7246 6.88839 17.558 6.36836C17.4128 6.36836 17.2926 6.52476 17.1875 6.61165C17.1694 7.02053 17.5179 7.75106 17.6506 8.18945C17.0549 8.14748 16.6629 7.5645 16.1319 7.45334C15.8726 7.64876 15.8726 7.64876 15.7645 7.77172C16.2706 8.04518 16.7767 8.31864 17.2862 8.59505V8.7003C15.9251 9.7643 15.9251 9.7643 15.8076 9.8184C15.6749 9.66528 15.4341 9.4574 15.4217 9.29542C15.8291 8.94065 15.8291 8.94065 15.9153 8.91966C15.7641 8.67014 15.7641 8.67014 15.5082 8.37864C15.3631 8.4957 15.0947 8.77539 14.9277 8.77539C14.7795 8.5921 14.5882 8.4357 14.5728 8.24028C14.7179 8.12617 15.0048 7.96682 15.0358 7.79238C14.9061 7.65139 14.7765 7.51302 14.6499 7.37465C11.7579 9.64987 11.7579 9.64987 11.6532 9.77611C11.7674 9.91152 11.7674 9.91152 14.6718 12.1989H14.758C14.9216 11.9946 15.0853 11.793 15.252 11.5916C15.5483 11.708 15.721 11.7569 15.8972 12.0874C15.8972 12.3274 15.4897 12.5173 15.4217 12.8028C15.4648 12.8232 15.5082 12.8445 15.5513 12.8655C16.2736 12.3251 16.9249 12.0149 17.8415 11.9248H18.2274C20.135 12.0933 21.1998 13.3042 21.4406 15.1197V15.4112C21.3756 16.0004 21.2584 16.4782 20.9745 17.0339C21.0025 17.2838 21.2368 17.3828 21.4497 17.5513C21.4497 17.9445 21.1968 18.2724 20.7984 18.3743C20.4004 18.0291 20.4004 18.0291 20.2519 17.9478C19.6653 18.3652 18.8167 18.8973 18.0573 18.8973C18 18.8889 17.9424 18.8819 17.8846 18.8763H17.6283C17.5707 18.8817 17.5132 18.8887 17.4559 18.8973C17.3293 18.8973 16.9249 18.837 16.8569 18.7711C15.2735 18.2868 14.7027 17.3707 14.3724 15.8706V15.702V15.4105V15.2453C14.4805 14.5479 14.5606 14.3134 14.8661 13.7006C14.823 13.6704 14.7799 13.6436 14.7364 13.616C14.5697 13.8121 14.4064 14.0098 14.2428 14.2085C13.8939 14.2328 13.6656 13.9498 13.5359 13.7006C13.7057 13.4898 13.8787 13.2799 14.0515 13.0724C11.372 10.9447 11.372 10.9447 11.2892 10.9237C11.2737 12.0779 11.2582 13.2321 11.2458 14.3892H12.1004C12.3136 14.4698 12.2179 15.0679 12.1004 15.2243H11.2458V15.4105H11.2892C12.9679 15.5758 14.1656 16.9224 14.3724 18.5422V19.0019C14.1656 20.4715 13.4218 21.3611 12.0176 21.9864C11.7859 21.9864 11.5175 22.1549 11.2892 22.1549C11.2737 22.3982 11.2582 22.6415 11.2458 22.8858C11.0181 23.0497 10.4504 23.0261 10.2621 22.8854ZM16.216 14.9718H16.4289C17.497 14.9718 17.7004 16.7296 16.537 16.9552C16.5585 17.0064 16.5585 17.0064 17.1572 17.4572C17.9506 17.2864 18.3022 16.3244 18.1264 15.6358C18.1455 15.6232 18.165 15.6113 18.185 15.6001H18.4874C19.0615 15.3112 19.8239 15.0741 19.7804 14.2508C19.5767 14.1003 19.373 13.9498 19.1723 13.8026C19.1632 13.857 19.1568 13.9141 19.1507 13.9711C18.7278 15.1227 17.3633 15.0623 17.1013 13.8541C17.1973 13.2714 17.5428 12.7602 18.2281 12.7602H18.4874C18.8453 12.7602 19.1757 12.9678 19.5151 13.1566C20.5984 14.0918 20.9287 15.2423 20.2835 16.5893C20.0273 16.5618 19.9407 16.2703 19.6417 16.2257C19.3023 16.4903 19.2497 16.5618 19.0645 16.9559C19.5339 17.3464 19.5339 17.3464 19.5767 17.4156C18.4965 18.3442 17.1973 18.2091 16.0861 17.5002C15.4129 16.7726 15.0583 16.427 15.4813 15.4568C15.6726 15.2394 15.8951 14.9718 16.216 14.9718ZM7.96895 18.8967V18.6052C8.05246 18.0248 8.10466 17.7572 8.48416 17.3097C9.18526 16.8979 9.44724 16.8352 10.111 17.3038C10.284 17.6222 10.284 17.6222 10.3238 17.8117V18.1032C10.148 18.9235 9.34857 19.1042 8.67543 18.7314C8.66028 19.0016 8.64479 19.2724 8.63266 19.5429H8.67543C9.12936 19.8734 9.96582 19.7082 10.4319 19.4193C10.614 19.2393 10.7036 19.1009 10.7747 19.0741C11.2067 19.8587 12.0832 19.7472 12.8301 19.5639V18.7314C12.6412 18.8266 12.4399 18.8964 12.2317 18.939H12.062C11.6084 18.939 11.3646 18.5183 11.1825 18.2294C11.1454 16.8834 12.0869 16.7205 13.0682 17.3457C13.3336 17.773 13.4757 18.0074 13.5373 18.5209V19.0229C13.4386 19.5698 13.3336 19.7862 13.0251 20.2941C12.6052 20.724 11.9169 21.3188 11.2909 21.3188C11.2754 21.0965 11.2599 20.8745 11.2475 20.6522C10.8215 20.5318 10.5962 20.4836 10.2133 20.6702C10.2133 20.8086 10.2164 20.9463 10.2194 21.0876V21.3188C9.03978 21.3188 8.00902 19.9036 7.96895 18.8967ZM3.02123 12.7599H3.27749C3.5984 12.7599 3.84523 12.9252 4.11395 13.1357C4.90091 14.2685 3.58291 15.4168 2.53666 14.398C2.37334 14.079 2.37334 14.079 2.35785 13.9708C2.34842 13.9137 2.34236 13.8567 2.3363 13.8023C1.71603 14.2564 1.71603 14.2564 1.67259 14.3256C1.85476 14.8758 2.30835 15.4974 2.97813 15.5788V15.6211H3.32059V15.5788C3.33608 15.5847 3.35157 15.5942 3.36706 15.6024C3.34248 15.7112 3.32059 15.822 3.29904 15.9335V16.1827C3.40713 16.6008 3.79304 17.4359 4.37021 17.4359C4.56754 17.2766 4.76521 17.1202 4.96287 16.9641C4.49682 16.7572 4.27121 16.6034 4.15705 16.0988V15.8489C4.27121 15.4404 4.56451 14.9715 5.07669 14.9715H5.29288C5.76499 14.9715 6.12328 15.5037 6.21251 15.9335V16.2673C5.72795 18.0284 3.21822 18.6924 1.90696 17.4149C2.07028 17.2831 2.23393 17.1503 2.40062 17.0185C2.40062 16.6247 2.15985 16.4113 1.86352 16.225C1.53957 16.2578 1.45909 16.5677 1.22136 16.5887C0.601081 15.2663 0.887983 14.0341 2.02381 13.1235C2.33596 12.9583 2.64779 12.7599 3.02123 12.7599Z" fill="black"/>
<path fill-rule="evenodd" clip-rule="evenodd" d="M30.0842 3.85875V14.8565C30.0842 16.0943 30.2926 16.9832 30.7095 17.5225C31.1264 18.0622 31.8262 18.3321 32.8088 18.3321C33.9392 18.3321 34.7733 17.9396 35.3107 17.1537C35.8482 16.3684 36.1166 15.2772 36.1166 13.8807V3.83679H34.4211V3.33512H38.2576V3.83679H36.7284V14.1423C36.7284 15.6185 36.3489 16.8166 35.5886 17.737C34.8289 18.6574 33.6614 19.1177 32.0865 19.1177C30.3623 19.1177 29.0928 18.6856 28.2776 17.8203C27.4623 16.9556 27.0636 15.6103 27.0822 13.7849V3.85875H25.4419V3.33512H31.7248V3.85875H30.0842ZM39.6193 3.33512H45.8187C47.5977 3.35085 48.9551 3.6289 49.8913 4.16828C50.8274 4.70766 51.2955 5.52509 51.2955 6.62024C51.2769 7.61997 50.92 8.40559 50.2246 8.97677C49.5303 9.54828 48.5153 9.96864 47.1808 10.2385L47.2084 10.3575C48.6541 10.7067 49.7616 11.2186 50.5311 11.8927C51.2998 12.5678 51.6847 13.4361 51.6847 14.4997C51.6847 15.8805 51.1567 16.9635 50.0997 17.7491C49.0433 18.5344 47.6536 18.9275 45.9298 18.9275H39.6193V18.4036H41.232V3.85875H39.6193V3.33512ZM44.2344 9.9529H45.6241C46.3467 9.9529 46.9172 9.74666 47.334 9.33385C47.7509 8.92136 47.9594 8.35772 47.9594 7.64391V6.04905C47.9594 5.30343 47.7647 4.75586 47.3755 4.40633C46.9862 4.05746 46.4488 3.87482 45.7635 3.85909H44.2344V9.9529ZM44.2344 18.4039H45.4853C46.4488 18.42 47.1532 18.2137 47.5977 17.7845C48.0422 17.356 48.2746 16.5549 48.2927 15.3804V13.7377C48.2742 12.6272 48.0567 11.8094 47.6398 11.2858C47.2229 10.7621 46.5875 10.4923 45.7352 10.4765H44.2344V18.4039ZM53.3526 18.0816V14.3437H54.1551C54.4413 15.3447 54.8918 16.2418 55.5067 17.0353C56.3132 18.0747 57.2537 18.5941 58.3289 18.5941C58.4216 18.6102 58.5236 18.6102 58.6347 18.5941C58.7458 18.578 58.8664 18.5626 58.9957 18.5465C59.6631 18.4672 60.1915 18.1891 60.5801 17.7134C60.9693 17.237 61.164 16.6343 61.164 15.9041C61.164 15.2847 61.0067 14.7296 60.6912 14.2378C60.376 13.7459 59.746 13.2695 58.8011 12.8098L56.4937 11.7146C55.6044 11.3018 54.9279 10.7464 54.4642 10.048C54.0012 9.34959 53.7698 8.46101 53.7698 7.38159C53.7513 6.14381 54.1308 5.12801 54.9097 4.33452C55.6879 3.54103 56.6705 3.14429 57.8562 3.14429C59.3294 3.19118 60.9178 3.73613 62.1371 4.30698V7.7626H61.5256C61.4273 7.44264 61.3208 7.12514 61.2061 6.81041C61.1154 6.55422 61.0183 6.30024 60.9148 6.04873C60.5437 5.28704 60.0992 4.69979 59.5803 4.28698C59.0614 3.87417 58.5051 3.66793 57.9124 3.66793C57.1712 3.66793 56.5826 3.82662 56.1472 4.14402C55.7118 4.46142 55.4936 4.93751 55.4936 5.5723C55.4751 6.2389 55.6054 6.80222 55.8829 7.26257C56.161 7.7226 56.6708 8.11967 57.412 8.45281L59.9416 9.64272C60.9057 10.1188 61.6516 10.7697 62.1796 11.595C62.7076 12.4199 62.9814 13.3088 62.9999 14.261C62.9999 15.5942 62.5921 16.7369 61.7765 17.6891C60.9609 18.6413 59.8305 19.2741 58.3848 19.2741C57.3036 19.2748 54.1439 18.8233 53.3526 18.0816Z" fill="black"/>
</g>
</svg>
